<svg xmlns="http://www.w3.org/2000/svg" version="1.1" xmlns:xlink="http://www.w3.org/1999/xlink" width="512" height="512" x="0" y="0" viewBox="0 0 64 64" style="enable-background:new 0 0 512 512" xml:space="preserve" class=""><g><path d="M16 14h-4c-.6 0-1-.4-1-1s.4-1 1-1h4c.6 0 1 .4 1 1s-.4 1-1 1z" fill="#a3a8ac" opacity="1" data-original="#000000" class=""></path><circle cx="51" cy="13" r="1" fill="#a3a8ac" opacity="1" data-original="#000000" class=""></circle><circle cx="47" cy="13" r="1" fill="#a3a8ac" opacity="1" data-original="#000000" class=""></circle><circle cx="43" cy="13" r="1" fill="#a3a8ac" opacity="1" data-original="#000000" class=""></circle><path d="M55 15c.6 0 1-.4 1-1v-3c0-1.7-1.3-3-3-3H11c-1.7 0-3 1.3-3 3v42c0 1.7 1.3 3 3 3h42c1.7 0 3-1.3 3-3V17c0-.6-.4-1-1-1H12c-.6 0-1 .4-1 1s.4 1 1 1h8v36h-9c-.6 0-1-.4-1-1V11c0-.6.4-1 1-1h42c.6 0 1 .4 1 1v3c0 .6.4 1 1 1zm-33 3h32v35c0 .6-.4 1-1 1H22z" fill="#a3a8ac" opacity="1" data-original="#000000" class=""></path><path d="M14 22h-2c-.6 0-1-.4-1-1s.4-1 1-1h2c.6 0 1 .4 1 1s-.4 1-1 1zM18 26h-4c-.6 0-1-.4-1-1s.4-1 1-1h4c.6 0 1 .4 1 1s-.4 1-1 1zM18 30h-4c-.6 0-1-.4-1-1s.4-1 1-1h4c.6 0 1 .4 1 1s-.4 1-1 1zM18 34h-4c-.6 0-1-.4-1-1s.4-1 1-1h4c.6 0 1 .4 1 1s-.4 1-1 1zM14 40h-2c-.6 0-1-.4-1-1s.4-1 1-1h2c.6 0 1 .4 1 1s-.4 1-1 1zM18 44h-4c-.6 0-1-.4-1-1s.4-1 1-1h4c.6 0 1 .4 1 1s-.4 1-1 1zM18 48h-4c-.6 0-1-.4-1-1s.4-1 1-1h4c.6 0 1 .4 1 1s-.4 1-1 1zM18 52h-4c-.6 0-1-.4-1-1s.4-1 1-1h4c.6 0 1 .4 1 1s-.4 1-1 1zM51 34H25c-.6 0-1-.4-1-1V21c0-.6.4-1 1-1h26c.6 0 1 .4 1 1v12c0 .6-.4 1-1 1zm-25-2h24V22H26zM51 52H25c-.6 0-1-.4-1-1V39c0-.6.4-1 1-1h26c.6 0 1 .4 1 1v12c0 .6-.4 1-1 1zm-25-2h24V40H26z" fill="#a3a8ac" opacity="1" data-original="#000000" class=""></path></g></svg>