<svg xmlns="http://www.w3.org/2000/svg" version="1.1" xmlns:xlink="http://www.w3.org/1999/xlink" width="512" height="512" x="0" y="0" viewBox="0 0 48 48" style="enable-background:new 0 0 512 512" xml:space="preserve" class=""><g><path fill="#1976d2" d="M24 2C11.87 2 2 11.87 2 24s9.87 22 22 22 22-9.87 22-22S36.13 2 24 2z" opacity="1" data-original="#1976d2"></path><path fill="#ffffff" d="m26.828 24 6.364-6.364a2 2 0 1 0-2.828-2.828L24 21.172l-6.364-6.364a2 2 0 1 0-2.828 2.828L21.172 24l-6.364 6.364a2 2 0 1 0 2.828 2.828L24 26.828l6.364 6.364c.39.391.903.586 1.414.586s1.024-.195 1.414-.586a2 2 0 0 0 0-2.828z" opacity="1" data-original="#ffffff" class=""></path></g></svg>