<svg xmlns="http://www.w3.org/2000/svg" version="1.1" xmlns:xlink="http://www.w3.org/1999/xlink" width="512" height="512" x="0" y="0" viewBox="0 0 24 24" style="enable-background:new 0 0 512 512" xml:space="preserve" class=""><g><linearGradient id="a" x1="2.75" x2="2.75" y1="3.25" y2="20.75" gradientUnits="userSpaceOnUse"><stop offset="0" stop-color="#e100ff"></stop><stop offset="1" stop-color="#7f00ff"></stop></linearGradient><g fill="url(#a)"><path d="M3.5 3.25a.75.75 0 0 0-.75.75v16c0 .414.336.75.75.75h3a.75.75 0 0 0 .75-.75V4a.75.75 0 0 0-.75-.75zM10.5 3.25a.75.75 0 0 0-.75.75v16c0 .414.336.75.75.75h3a.75.75 0 0 0 .75-.75V4a.75.75 0 0 0-.75-.75zM17.5 3.25a.75.75 0 0 0-.75.75v16c0 .414.336.75.75.75h3a.75.75 0 0 0 .75-.75V4a.75.75 0 0 0-.75-.75z" fill="" opacity="1"></path></g></g></svg>