<svg xmlns="http://www.w3.org/2000/svg" version="1.1" xmlns:xlink="http://www.w3.org/1999/xlink" width="512" height="512" x="0" y="0" viewBox="0 0 510 510" style="enable-background:new 0 0 512 512" xml:space="preserve" class=""><g><linearGradient id="c" x1="64.028" x2="64.028" y1="418.935" y2="452.151" gradientUnits="userSpaceOnUse"><stop offset="0" stop-color="#45a2e0"></stop><stop offset="1" stop-color="#2f73a0"></stop></linearGradient><linearGradient id="d" x1="1778.071" x2="1906.767" y1="-753.053" y2="-753.053" gradientTransform="rotate(45 -374.366 -2193.62)" gradientUnits="userSpaceOnUse"><stop offset="0" stop-color="#ffe0ea"></stop><stop offset="1" stop-color="#ffc0d5"></stop></linearGradient><linearGradient id="a"><stop offset="0" stop-color="#ffce47"></stop><stop offset="1" stop-color="#ff9356"></stop></linearGradient><linearGradient xlink:href="#a" id="e" x1="159.453" x2="475.324" y1="249.529" y2="249.529" gradientUnits="userSpaceOnUse"></linearGradient><linearGradient xlink:href="#a" id="f" x1="352.052" x2="260.186" y1="290.383" y2="198.517" gradientUnits="userSpaceOnUse"></linearGradient><linearGradient id="g" x1="1838.534" x2="1871.371" y1="-686.957" y2="-686.957" gradientTransform="rotate(45 -374.366 -2193.62)" gradientUnits="userSpaceOnUse"><stop offset="0" stop-color="#2f73a0"></stop><stop offset="1" stop-color="#174461"></stop></linearGradient><linearGradient id="b"><stop offset="0" stop-color="#ff755c"></stop><stop offset="1" stop-color="#ff4181"></stop></linearGradient><linearGradient xlink:href="#b" id="h" x1="165.728" x2="174.844" y1="-1288.585" y2="-1256.68" gradientTransform="rotate(45 -1363.147 -240.8)" gradientUnits="userSpaceOnUse"></linearGradient><linearGradient id="i" x1="204.147" x2="171.996" y1="-1136.352" y2="-1229.791" gradientTransform="rotate(45 -1363.147 -240.8)" gradientUnits="userSpaceOnUse"><stop offset="0" stop-color="#ff9356" stop-opacity="0"></stop><stop offset="1" stop-color="#ff755c"></stop></linearGradient><linearGradient id="j" x1="168.286" x2="176.324" y1="-1253.741" y2="-1225.609" gradientTransform="rotate(45 -1363.147 -240.8)" gradientUnits="userSpaceOnUse"><stop offset="0" stop-color="#edf5ff"></stop><stop offset="1" stop-color="#c7e9ff"></stop></linearGradient><linearGradient xlink:href="#a" id="k" x1="1329.848" x2="1311.088" y1="332.313" y2="332.313" gradientTransform="rotate(-45 583.996 1807.662)" gradientUnits="userSpaceOnUse"></linearGradient><linearGradient xlink:href="#b" id="l" x1="-821.765" x2="-840.525" y1="793.13" y2="793.13" gradientTransform="rotate(-90 -612.822 135.394)" gradientUnits="userSpaceOnUse"></linearGradient><linearGradient id="m" x1="205.808" x2="139.812" y1="218.4" y2="218.4" gradientUnits="userSpaceOnUse"><stop offset="0" stop-color="#e4e08e"></stop><stop offset="1" stop-color="#6fa953"></stop></linearGradient><path fill="url(#c)" d="M8.448 453.09h111.159a8.448 8.448 0 0 0 8.448-8.448v-16.896a8.448 8.448 0 0 0-8.448-8.448H8.448A8.448 8.448 0 0 0 0 427.746v16.896a8.448 8.448 0 0 0 8.448 8.448z" opacity="1" data-original="url(#c)" class=""></path><path fill="url(#d)" d="m159.452 316.463-35.437 99.13 1.418 24.346c-2.185 6.112 25.89 2.962 25.89 2.962l99.13-35.437c25.205-25.204-65.797-116.205-91.001-91.001z" opacity="1" data-original="url(#d)"></path><path fill="url(#e)" d="M470.179 187.752 250.451 407.464c-2.491-4.318-6.278-8.138-11.128-10.845-6.627-3.67-16.99-1.661-24.165.515-1.561.465-2.99-.349-3.571-1.594a2.984 2.984 0 0 1-.033-2.558c.017 0 .017-.017.017-.017.399-.914.747-1.844 1.046-2.774l.399-1.345c.017-.033.017-.05.017-.083.382-1.445.648-2.89.797-4.368.05-.482.083-.98.116-1.462a28.84 28.84 0 0 0 .023-2.407 28.391 28.391 0 0 0-5.504-15.929 27.902 27.902 0 0 0-2.84-3.305 28.063 28.063 0 0 0-3.305-2.84 28.43 28.43 0 0 0-18.336-5.481c-.482.033-.98.066-1.462.116-1.478.149-2.94.415-4.368.797-.033 0-.05 0-.083.017l-1.345.399c-.482.15-.946.316-1.411.498-.448.166-.897.349-1.345.548-.017 0-.017 0-.033.017a2.988 2.988 0 0 1-2.558-.033c-1.246-.581-2.059-2.01-1.594-3.571 2.176-7.175 4.185-17.522.515-24.149-2.707-4.866-6.511-8.653-10.845-11.144l219.71-219.728c6.876-6.859 18.003-6.859 24.863 0l12.971 12.971 40.209 40.209 12.971 12.971c6.86 6.859 6.86 17.987 0 24.863z" opacity="1" data-original="url(#e)"></path><path fill="url(#f)" d="M457.208 149.918 211.587 395.539a2.984 2.984 0 0 1-.033-2.558c.017 0 .017-.017.017-.017.399-.914 2.126-7.108 2.259-8.57.066-.498.1-.98.116-1.462a28.432 28.432 0 0 0-5.481-18.336 27.902 27.902 0 0 0-2.84-3.305 28.063 28.063 0 0 0-3.305-2.84 28.43 28.43 0 0 0-18.336-5.481 15.1 15.1 0 0 0-1.462.116 24.965 24.965 0 0 0-4.368.797c-.033 0-.05 0-.083.017-.448.116-3.654 1.246-4.102 1.445-.017 0-.017 0-.033.017a2.988 2.988 0 0 1-2.558-.033L417 109.708z" opacity="1" data-original="url(#f)"></path><path fill="url(#g)" d="M139.792 427.125a63.352 63.352 0 0 0-15.777-11.532l-9.724 27.202c-2.185 6.112 3.718 12.016 9.83 9.83l27.202-9.724a63.318 63.318 0 0 0-11.531-15.776z" opacity="1" data-original="url(#g)"></path><path fill="url(#h)" d="m499.897 109.241-42.228-42.228c-13.47-13.47-35.309-13.47-48.779 0l-17.293 17.293 91.007 91.007 17.293-17.293c13.47-13.47 13.47-35.309 0-48.779z" opacity="1" data-original="url(#h)" class=""></path><path fill="url(#i)" d="m470.179 162.889-12.971-12.971-40.209-40.209-12.971-12.971c-6.859-6.859-17.987-6.859-24.863 0l-8.553 8.553v182.02l99.567-99.559c6.86-6.876 6.86-18.004 0-24.863z" opacity="1" data-original="url(#i)"></path><path fill="url(#j)" d="m455.806 191.544-81.371-81.371c-5.127-5.127-5.127-13.438 0-18.565l11.841-11.841c5.127-5.127 13.438-5.127 18.565 0l81.371 81.371c5.127 5.127 5.127 13.438 0 18.565l-11.841 11.841c-5.127 5.126-13.439 5.126-18.565 0z" opacity="1" data-original="url(#j)"></path><path fill="url(#k)" d="M97.809 271.295c-7.446 7.446-19.519 7.446-26.966 0L34.29 234.742c-7.446-7.446-7.446-19.519 0-26.966 7.446-7.446 19.519-7.446 26.966 0l36.553 36.553c7.447 7.446 7.447 19.519 0 26.966z" opacity="1" data-original="url(#k)" class=""></path><path fill="url(#l)" d="M89.829 347.688c0 10.531-8.537 19.068-19.068 19.068H19.068C8.537 366.755 0 358.219 0 347.688s8.537-19.068 19.068-19.068h51.693c10.531 0 19.068 8.537 19.068 19.068z" opacity="1" data-original="url(#l)"></path><path fill="url(#m)" d="M174.202 263.314c-10.531 0-19.068-8.537-19.068-19.068v-51.693c0-10.531 8.537-19.068 19.068-19.068s19.068 8.537 19.068 19.068v51.693c0 10.531-8.537 19.068-19.068 19.068z" opacity="1" data-original="url(#m)"></path></g></svg>