<svg xmlns="http://www.w3.org/2000/svg" version="1.1" xmlns:xlink="http://www.w3.org/1999/xlink" width="512" height="512" x="0" y="0" viewBox="0 0 512.001 512" style="enable-background:new 0 0 512 512" xml:space="preserve" class=""><g><path fill="#eafaff" d="M50.293 303.719 21.734 332.28c-15.632 15.63-15.632 40.95 0 56.567L123.152 490.27c15.621 15.617 40.938 15.617 56.57 0l28.56-28.563zm0 0" opacity="1" data-original="#eafaff"></path><path fill="#ff523d" d="M490.27 123.152c15.628 15.621 15.628 40.942 0 56.57L333 337l-.012-.012L175.012 179l157.27-157.266c15.628-15.629 40.948-15.629 56.566 0zm0 0" opacity="1" data-original="#ff523d"></path><path fill="#96c8ef" d="M333 337 208.281 461.707c-15.62 15.621-40.941 15.621-56.558 0L50.293 360.281c-15.621-15.62-15.621-40.941 0-56.562L175.012 179l157.976 157.988zm0 0" opacity="1" data-original="#96c8ef"></path><path d="M238.64 157.793c-3.898 3.91-3.898 10.238 0 14.14a10.006 10.006 0 0 0 14.15 0c3.901-3.902 3.901-10.23 0-14.14a10.013 10.013 0 0 0-14.15 0zm0 0" fill="#000000" opacity="1" data-original="#000000" class=""></path><path d="M497.34 116.082 395.922 14.664c-19.535-19.55-51.16-19.55-70.715 0L14.664 325.207c-19.543 19.543-19.559 51.168 0 70.715L116.082 497.34c9.254 9.254 21.648 14.656 36.32 14.656H348c5.52 0 10-4.476 10-10 0-5.52-4.48-10-10-10H192.133c.758-.754 304.789-304.785 305.207-305.203 19.539-19.543 19.555-51.168 0-70.711zM201.21 454.637c-11.694 11.695-30.722 11.695-42.417 0l-101.43-101.43c-5.664-5.664-8.785-13.195-8.785-21.207 0-8.008 3.121-15.543 8.785-21.207l117.649-117.648L318.859 337zM28.8 381.773c-11.726-11.718-11.73-30.687.005-42.421l.273-.274c1.504 10.668 6.39 20.52 14.145 28.274l101.43 101.425c7.949 7.953 17.937 12.657 28.296 14.121l-.297.297c-11.699 11.696-30.734 11.7-42.43 0zm454.395-209.12L333 322.854 189.152 179.004l150.2-150.2c11.726-11.726 30.695-11.738 42.425 0L483.2 130.228c11.73 11.722 11.735 30.687-.004 42.425zm0 0" fill="#000000" opacity="1" data-original="#000000" class=""></path><path d="m339.36 57.082-72.43 72.43c-3.907 3.906-3.907 10.238 0 14.14a9.996 9.996 0 0 0 14.14 0l72.43-72.43c3.906-3.906 3.906-10.238 0-14.14a9.996 9.996 0 0 0-14.14 0zM388 491.996c-5.523 0-10 4.48-10 10 0 5.524 4.477 10 10 10h20c5.52 0 10-4.476 10-10 0-5.52-4.48-10-10-10zM448 491.996c-5.523 0-10 4.48-10 10 0 5.524 4.477 10 10 10h19.996c5.524 0 10-4.476 10-10 0-5.52-4.476-10-10-10zm0 0" fill="#000000" opacity="1" data-original="#000000" class=""></path></g></svg>