<svg xmlns="http://www.w3.org/2000/svg" version="1.1" xmlns:xlink="http://www.w3.org/1999/xlink" width="512" height="512" x="0" y="0" viewBox="0 0 256 256" style="enable-background:new 0 0 512 512" xml:space="preserve" class=""><g><path fill="#3a70bf" d="M242.649 110.76v-2.712c0-7.159-5.857-13.017-13.017-13.017H26.364c-7.159 0-13.017 5.857-13.017 13.017v2.712z" opacity="1" data-original="#3a70bf"></path><path fill="#5290db" d="M177.761 95.032V50.177c0-4.276-3.499-7.775-7.775-7.775h-4.871v52.63z" opacity="1" data-original="#5290db"></path><path fill="#edf4fc" d="M165.115 95.032V35.135a4.337 4.337 0 0 0-4.325-4.325H68.497a4.337 4.337 0 0 0-4.325 4.325v59.897z" opacity="1" data-original="#edf4fc"></path><path fill="#5290db" d="M64.171 95.032v-52.63H59.3c-4.276 0-7.775 3.499-7.775 7.775v44.854h12.646z" opacity="1" data-original="#5290db"></path><path fill="#29589f" d="M246.622 110.76H9.374c-3.781 0-6.874 3.093-6.874 6.874v90.384c0 3.781 3.093 6.874 6.874 6.874h54.797v-51.524h100.943v51.524h81.508c3.781 0 6.874-3.093 6.874-6.874v-90.384c0-3.781-3.093-6.874-6.874-6.874z" opacity="1" data-original="#29589f"></path><path fill="#5290db" d="M229.633 95.032h-22.821v15.728h35.838v-2.712c-.001-7.159-5.858-13.016-13.017-13.016z" opacity="1" data-original="#5290db"></path><path fill="#3a70bf" d="M44.218 110.76H9.374c-3.781 0-6.874 3.093-6.874 6.874v6.685h41.718z" opacity="1" data-original="#3a70bf"></path><path fill="#173f7f" d="M176.384 147.546H53.38a9.127 9.127 0 0 1-6.795-3.032v70.378h17.586v-51.524h100.943v51.524h18.065v-70.378a9.124 9.124 0 0 1-6.795 3.032z" opacity="1" data-original="#173f7f"></path><path fill="#edf4fc" d="M64.171 163.368v56.806a5.016 5.016 0 0 0 5.016 5.016h90.911a5.016 5.016 0 0 0 5.016-5.016v-56.806z" opacity="1" data-original="#edf4fc"></path><path fill="#29589f" d="M176.384 147.546H53.38a9.127 9.127 0 0 1-6.795-3.032v18.854h136.594v-18.854a9.124 9.124 0 0 1-6.795 3.032z" opacity="1" data-original="#29589f"></path><path fill="#5290db" d="M44.218 110.76v27.625a9.162 9.162 0 0 0 9.162 9.162h123.004a9.162 9.162 0 0 0 9.162-9.162V110.76z" opacity="1" data-original="#5290db"></path><path fill="#f5c84c" d="M117.515 122.296h-6.893c-3.475 0-6.318 2.843-6.318 6.318s2.843 6.318 6.318 6.318h6.893c3.475 0 6.318-2.843 6.318-6.318 0-3.474-2.843-6.318-6.318-6.318z" opacity="1" data-original="#f5c84c"></path><path fill="#3a70bf" d="M246.622 110.76h-61.076v13.559h67.95v-6.685c0-3.781-3.093-6.874-6.874-6.874z" opacity="1" data-original="#3a70bf"></path><path fill="#f5c84c" d="M206.923 149.853h-5.947a4.38 4.38 0 0 0-4.366 4.366v42.161a4.38 4.38 0 0 0 4.366 4.366h5.947a4.38 4.38 0 0 0 4.366-4.366v-42.16a4.38 4.38 0 0 0-4.366-4.367z" opacity="1" data-original="#f5c84c"></path><path fill="#ef4460" d="M221.603 149.853h-5.947a4.38 4.38 0 0 0-4.366 4.366v42.161a4.38 4.38 0 0 0 4.366 4.366h5.947a4.38 4.38 0 0 0 4.366-4.366v-42.16a4.38 4.38 0 0 0-4.366-4.367z" opacity="1" data-original="#ef4460"></path><path fill="#70d6f9" d="M236.282 149.853h-5.947a4.38 4.38 0 0 0-4.366 4.366v42.161a4.38 4.38 0 0 0 4.366 4.366h5.947a4.38 4.38 0 0 0 4.366-4.366v-42.16a4.379 4.379 0 0 0-4.366-4.367z" opacity="1" data-original="#70d6f9"></path><path fill="#5290db" d="M211.289 163.368v-9.149a4.38 4.38 0 0 0-4.366-4.366h-5.947a4.38 4.38 0 0 0-4.366 4.366v9.149zM225.969 163.368v-9.149a4.38 4.38 0 0 0-4.366-4.366h-5.947a4.38 4.38 0 0 0-4.366 4.366v9.149zM240.648 163.368v-9.149a4.38 4.38 0 0 0-4.366-4.366h-5.947a4.38 4.38 0 0 0-4.366 4.366v9.149z" opacity="1" data-original="#5290db"></path><path fill="#f5c84c" d="M41.145 48.059c-3.637-.677-6.503-3.485-7.194-7.048a.162.162 0 0 0-.319 0c-.691 3.563-3.558 6.371-7.195 7.048a.158.158 0 0 0 0 .313c3.637.677 6.503 3.485 7.195 7.048a.162.162 0 0 0 .319 0c.691-3.563 3.558-6.371 7.194-7.048a.158.158 0 0 0 0-.313z" opacity="1" data-original="#f5c84c"></path><path fill="#3caadc" d="M203.97 56.091h-2.226v-2.226a3.017 3.017 0 1 0-6.034 0v2.226h-2.226a3.017 3.017 0 1 0 0 6.034h2.226v2.226a3.017 3.017 0 1 0 6.034 0v-2.226h2.226a3.017 3.017 0 1 0 0-6.034z" opacity="1" data-original="#3caadc"></path><circle cx="21.667" cy="70.554" r="3.227" fill="#ef4460" opacity="1" data-original="#ef4460"></circle><circle cx="215.177" cy="79.383" r="3.227" fill="#87d147" opacity="1" data-original="#87d147"></circle><circle cx="227.624" cy="34.784" r="3.227" fill="#3a70bf" opacity="1" data-original="#3a70bf"></circle><path d="M242.649 113.26H13.347a2.5 2.5 0 0 1-2.5-2.5v-2.712c0-8.556 6.961-15.516 15.517-15.516h203.269c8.556 0 15.517 6.96 15.517 15.516v2.712a2.501 2.501 0 0 1-2.501 2.5zm-226.802-5h224.302v-.212c0-5.799-4.718-10.516-10.517-10.516H26.364c-5.799 0-10.517 4.717-10.517 10.516z" fill="#000000" opacity="1" data-original="#000000"></path><path d="M177.761 97.532h-12.646a2.5 2.5 0 0 1-2.5-2.5v-52.63a2.5 2.5 0 0 1 2.5-2.5h4.871c5.666 0 10.275 4.609 10.275 10.275v44.854a2.5 2.5 0 0 1-2.5 2.501zm-10.146-5h7.646V50.177a5.281 5.281 0 0 0-5.275-5.275h-2.371z" fill="#000000" opacity="1" data-original="#000000"></path><path d="M165.115 97.532H64.171a2.5 2.5 0 0 1-2.5-2.5V35.135a6.833 6.833 0 0 1 6.825-6.825h92.293a6.833 6.833 0 0 1 6.825 6.825v59.897a2.498 2.498 0 0 1-2.499 2.5zm-98.444-5h95.943V35.135a1.827 1.827 0 0 0-1.825-1.825H68.497a1.827 1.827 0 0 0-1.825 1.825v57.397z" fill="#000000" opacity="1" data-original="#000000"></path><path d="M64.171 97.532H51.525a2.5 2.5 0 0 1-2.5-2.5V50.177c0-5.666 4.609-10.275 10.275-10.275h4.871a2.5 2.5 0 0 1 2.5 2.5v52.63a2.5 2.5 0 0 1-2.5 2.5zm-10.146-5h7.646v-47.63H59.3a5.281 5.281 0 0 0-5.275 5.275zM149.037 177.8h-67.29a2.5 2.5 0 1 1 0-5h67.29a2.5 2.5 0 1 1 0 5zM149.037 188.647h-67.29a2.5 2.5 0 1 1 0-5h67.29a2.5 2.5 0 1 1 0 5zM149.037 199.495h-67.29a2.5 2.5 0 1 1 0-5h67.29a2.5 2.5 0 1 1 0 5zM149.037 210.342h-7.546a2.5 2.5 0 1 1 0-5h7.546a2.5 2.5 0 1 1 0 5z" fill="#000000" opacity="1" data-original="#000000"></path><path d="M246.623 217.392h-81.508a2.5 2.5 0 0 1-2.5-2.5v-49.023H66.671v49.023a2.5 2.5 0 0 1-2.5 2.5H9.374c-5.169 0-9.374-4.205-9.374-9.374v-90.384c0-5.169 4.205-9.374 9.374-9.374h237.249c5.169 0 9.374 4.205 9.374 9.374v90.384c0 5.169-4.205 9.374-9.374 9.374zm-79.008-5h79.008a4.379 4.379 0 0 0 4.374-4.374v-90.384a4.379 4.379 0 0 0-4.374-4.374H9.374A4.379 4.379 0 0 0 5 117.634v90.384a4.379 4.379 0 0 0 4.374 4.374h52.297v-49.023a2.5 2.5 0 0 1 2.5-2.5h100.943a2.5 2.5 0 0 1 2.5 2.5v49.023z" fill="#000000" opacity="1" data-original="#000000"></path><path d="M242.649 113.26h-35.838a2.5 2.5 0 0 1-2.5-2.5V95.032a2.5 2.5 0 0 1 2.5-2.5h22.821c8.556 0 15.517 6.96 15.517 15.516v2.712a2.5 2.5 0 0 1-2.5 2.5zm-33.337-5h30.838v-.212c0-5.799-4.718-10.516-10.517-10.516h-20.321zM44.218 126.819H2.5a2.5 2.5 0 0 1-2.5-2.5v-6.685c0-5.169 4.205-9.374 9.374-9.374h34.844a2.5 2.5 0 0 1 2.5 2.5v13.559a2.5 2.5 0 0 1-2.5 2.5zm-39.218-5h36.718v-8.559H9.374A4.379 4.379 0 0 0 5 117.634zM183.18 217.392h-18.065a2.5 2.5 0 0 1-2.5-2.5v-49.023H66.671v49.023a2.5 2.5 0 0 1-2.5 2.5H46.585a2.5 2.5 0 0 1-2.5-2.5v-70.378a2.498 2.498 0 0 1 4.356-1.675 6.67 6.67 0 0 0 4.939 2.207h123.004a6.672 6.672 0 0 0 4.94-2.207 2.5 2.5 0 0 1 4.356 1.675v70.378a2.5 2.5 0 0 1-2.5 2.5zm-15.565-5h13.065v-63.173c-1.355.54-2.812.827-4.295.827H53.38c-1.483 0-2.94-.287-4.295-.827v63.173h12.586v-49.023a2.5 2.5 0 0 1 2.5-2.5h100.943a2.5 2.5 0 0 1 2.5 2.5v49.023z" fill="#000000" opacity="1" data-original="#000000"></path><path d="M160.099 227.69H69.187c-4.145 0-7.516-3.372-7.516-7.516v-56.806a2.5 2.5 0 0 1 2.5-2.5h100.943a2.5 2.5 0 0 1 2.5 2.5v56.806c.001 4.145-3.371 7.516-7.515 7.516zm-93.428-61.821v54.306a2.52 2.52 0 0 0 2.516 2.516h90.911a2.52 2.52 0 0 0 2.516-2.516v-54.306z" fill="#000000" opacity="1" data-original="#000000"></path><path d="M183.18 165.869H46.585a2.5 2.5 0 0 1-2.5-2.5v-18.854a2.498 2.498 0 0 1 4.356-1.675 6.67 6.67 0 0 0 4.939 2.207h123.004a6.672 6.672 0 0 0 4.94-2.207 2.5 2.5 0 0 1 4.356 1.675v18.854a2.5 2.5 0 0 1-2.5 2.5zm-134.095-5H180.68V149.22c-1.355.54-2.812.827-4.295.827H53.38c-1.483 0-2.94-.287-4.295-.827z" fill="#000000" opacity="1" data-original="#000000"></path><path d="M176.384 150.046H53.38c-6.43 0-11.662-5.231-11.662-11.662V110.76a2.5 2.5 0 0 1 2.5-2.5h141.328a2.5 2.5 0 0 1 2.5 2.5v27.625c0 6.429-5.231 11.661-11.662 11.661zM46.718 113.26v25.125a6.67 6.67 0 0 0 6.662 6.662h123.004a6.67 6.67 0 0 0 6.662-6.662V113.26z" fill="#000000" opacity="1" data-original="#000000"></path><path d="M117.515 137.433h-6.893c-4.862 0-8.818-3.956-8.818-8.818s3.956-8.818 8.818-8.818h6.893c4.862 0 8.818 3.956 8.818 8.818s-3.956 8.818-8.818 8.818zm-6.892-12.637c-2.105 0-3.818 1.713-3.818 3.818s1.713 3.818 3.818 3.818h6.893c2.105 0 3.818-1.713 3.818-3.818s-1.713-3.818-3.818-3.818zM253.497 126.819h-67.95a2.5 2.5 0 0 1-2.5-2.5V110.76a2.5 2.5 0 0 1 2.5-2.5h61.076c5.169 0 9.374 4.205 9.374 9.374v6.685a2.5 2.5 0 0 1-2.5 2.5zm-65.451-5h62.95v-4.185a4.379 4.379 0 0 0-4.374-4.374h-58.576zM206.923 203.247h-5.947a6.874 6.874 0 0 1-6.866-6.866V154.22a6.874 6.874 0 0 1 6.866-6.866h5.947a6.874 6.874 0 0 1 6.866 6.866v42.161a6.874 6.874 0 0 1-6.866 6.866zm-5.947-50.893a1.868 1.868 0 0 0-1.866 1.866v42.161c0 1.029.837 1.866 1.866 1.866h5.947a1.868 1.868 0 0 0 1.866-1.866V154.22a1.868 1.868 0 0 0-1.866-1.866z" fill="#000000" opacity="1" data-original="#000000"></path><path d="M221.603 203.247h-5.947a6.874 6.874 0 0 1-6.866-6.866V154.22a6.874 6.874 0 0 1 6.866-6.866h5.947a6.874 6.874 0 0 1 6.866 6.866v42.161a6.874 6.874 0 0 1-6.866 6.866zm-5.948-50.893a1.868 1.868 0 0 0-1.866 1.866v42.161c0 1.029.837 1.866 1.866 1.866h5.947a1.868 1.868 0 0 0 1.866-1.866V154.22a1.868 1.868 0 0 0-1.866-1.866z" fill="#000000" opacity="1" data-original="#000000"></path><path d="M236.282 203.247h-5.947a6.874 6.874 0 0 1-6.866-6.866V154.22a6.874 6.874 0 0 1 6.866-6.866h5.947a6.874 6.874 0 0 1 6.866 6.866v42.161a6.874 6.874 0 0 1-6.866 6.866zm-5.947-50.893a1.868 1.868 0 0 0-1.866 1.866v42.161c0 1.029.837 1.866 1.866 1.866h5.947a1.868 1.868 0 0 0 1.866-1.866V154.22a1.868 1.868 0 0 0-1.866-1.866zM211.289 165.869h-14.68a2.5 2.5 0 0 1-2.5-2.5v-9.149a6.874 6.874 0 0 1 6.866-6.866h5.947a6.874 6.874 0 0 1 6.866 6.866v9.149a2.498 2.498 0 0 1-2.499 2.5zm-12.18-5h9.68v-6.649a1.868 1.868 0 0 0-1.866-1.866h-5.947a1.868 1.868 0 0 0-1.866 1.866v6.649z" fill="#000000" opacity="1" data-original="#000000"></path><path d="M225.969 165.869h-14.68a2.5 2.5 0 0 1-2.5-2.5v-9.149a6.874 6.874 0 0 1 6.866-6.866h5.947a6.874 6.874 0 0 1 6.866 6.866v9.149a2.498 2.498 0 0 1-2.499 2.5zm-12.18-5h9.68v-6.649a1.868 1.868 0 0 0-1.866-1.866h-5.947a1.868 1.868 0 0 0-1.866 1.866v6.649z" fill="#000000" opacity="1" data-original="#000000"></path><path d="M240.648 165.869h-14.68a2.5 2.5 0 0 1-2.5-2.5v-9.149a6.874 6.874 0 0 1 6.866-6.866h5.947a6.874 6.874 0 0 1 6.866 6.866v9.149a2.498 2.498 0 0 1-2.499 2.5zm-12.179-5h9.68v-6.649a1.868 1.868 0 0 0-1.866-1.866h-5.947a1.868 1.868 0 0 0-1.866 1.866v6.649z" fill="#000000" opacity="1" data-original="#000000"></path></g></svg>