<svg xmlns="http://www.w3.org/2000/svg" version="1.1" xmlns:xlink="http://www.w3.org/1999/xlink" width="512" height="512" x="0" y="0" viewBox="0 0 70 70" style="enable-background:new 0 0 512 512" xml:space="preserve"><g><path fill="#ffe0b2" d="M59.92 19.33v41.23c0 3.56-2.88 6.44-6.44 6.44H16.51c-3.56 0-6.44-2.88-6.44-6.44V9.44c0-3.56 2.88-6.44 6.44-6.44h26.35a6.401 6.401 0 0 1 4.38 1.73l10.66 9.91a6.397 6.397 0 0 1 1.95 3.78c.05.3.07.6.07.91z" opacity="1" data-original="#ffe0b2"></path><path fill="#e8bd89" d="M59.92 56.86v3.7c0 3.56-2.88 6.44-6.44 6.44H16.51c-3.56 0-6.44-2.88-6.44-6.44V9.44c0-3.56 2.88-6.44 6.44-6.44h4.02v47.42c0 3.56 2.88 6.44 6.44 6.44z" opacity="1" data-original="#e8bd89"></path><path fill="#07beef" d="M59.85 18.42H48.26c-2.72 0-4.91-2.2-4.91-4.91V3.02c1.45.11 2.82.71 3.89 1.71l10.66 9.91a6.397 6.397 0 0 1 1.95 3.78z" opacity="1" data-original="#07beef"></path><path fill="#00b6e0" d="M59.85 18.42H48.26c-2.72 0-4.91-2.2-4.91-4.91V3.02c1.06.08 2.08.42 2.97 1v6.42c0 2.71 2.19 4.91 4.91 4.91h7.32c.7.89 1.14 1.95 1.3 3.07z" opacity="1" data-original="#00b6e0"></path><path fill="#7ec927" d="M45.41 34.25H25.5c-.33 0-.6-.27-.6-.6v-5.59c0-.33.27-.6.6-.6h19.9c.33 0 .6.27.6.6v5.59c0 .33-.26.6-.59.6z" opacity="1" data-original="#7ec927"></path><path fill="#60a917" d="M27.83 34.25H25.5c-.33 0-.6-.27-.6-.6v-5.59c0-.33.27-.6.6-.6h19.91c.33 0 .6.27.6.6v2.06H27.83z" opacity="1" data-original="#60a917"></path><path fill="#fc635b" d="M50.74 45.95H25.5c-.33 0-.6-.27-.6-.6v-5.59c0-.33.27-.6.6-.6h25.24c.33 0 .6.27.6.6v5.59c0 .33-.27.6-.6.6z" opacity="1" data-original="#fc635b"></path><path fill="#f34234" d="M27.89 45.95H25.5c-.33 0-.6-.27-.6-.6v-5.59c0-.33.27-.6.6-.6h25.24c.33 0 .6.27.6.6v1.95H27.89z" opacity="1" data-original="#f34234"></path><path fill="#ffa733" d="M41.63 57.65H25.5c-.33 0-.6-.27-.6-.6v-5.59c0-.33.27-.6.6-.6h16.13c.33 0 .6.27.6.6v5.59c0 .33-.27.6-.6.6z" opacity="1" data-original="#ffa733"></path><path fill="#ff9801" d="M27.71 57.65H25.5c-.33 0-.6-.27-.6-.6v-5.59c0-.33.27-.6.6-.6h16.13c.33 0 .6.27.6.6v1.86H27.71z" opacity="1" data-original="#ff9801"></path><path d="M41.63 49.86H25.5c-.88 0-1.6.72-1.6 1.6v5.59c0 .88.72 1.6 1.6 1.6h16.13c.88 0 1.6-.72 1.6-1.6v-5.59c0-.88-.72-1.6-1.6-1.6zm-.4 6.79H25.9v-4.79h15.32v4.79z" fill="#000000" opacity="1" data-original="#000000"></path><path d="M58.59 13.91 47.93 4a7.461 7.461 0 0 0-4.5-1.98h-.03c-.18-.01-.35-.02-.54-.02H16.51c-4.1 0-7.44 3.34-7.44 7.44v51.12c0 4.1 3.34 7.44 7.44 7.44h36.97c4.1 0 7.44-3.34 7.44-7.44V19.33c0-.39-.03-.74-.08-1.05a7.47 7.47 0 0 0-2.25-4.37zM44.35 4.22c.22.06.44.13.65.22.04.02.09.04.13.06.21.1.4.2.6.32.06.04.12.08.19.12.22.15.44.32.64.51l10.65 9.9c.2.19.38.4.54.61.04.05.08.11.12.16.15.21.3.44.42.67 0 .01.01.01.01.02.1.19.17.39.24.59H48.26a3.91 3.91 0 0 1-3.91-3.91zm14.58 56.34c0 3-2.44 5.44-5.44 5.44H16.51c-3 0-5.44-2.44-5.44-5.44V9.44c0-3 2.44-5.44 5.44-5.44h25.84v9.51c0 3.26 2.65 5.91 5.91 5.91h10.66v41.14z" fill="#000000" opacity="1" data-original="#000000"></path><path d="M16.17 12.68h19.49c.55 0 1-.45 1-1s-.45-1-1-1H16.17c-.55 0-1 .45-1 1s.45 1 1 1zM36.66 17.47c0-.55-.45-1-1-1H16.17c-.55 0-1 .45-1 1s.45 1 1 1h19.49c.55 0 1-.45 1-1zM23.9 28.06v5.59c0 .88.72 1.6 1.6 1.6h19.9c.88 0 1.6-.72 1.6-1.6v-5.59c0-.88-.72-1.6-1.6-1.6H25.5c-.88 0-1.6.72-1.6 1.6zm2 .4H45v4.79H25.9zM23.9 39.76v5.59c0 .88.72 1.6 1.6 1.6h25.24c.88 0 1.6-.72 1.6-1.6v-5.59c0-.88-.72-1.6-1.6-1.6H25.5c-.88 0-1.6.72-1.6 1.6zm2 .4h24.43v4.79H25.9zM18.66 24.19c-.55 0-1 .45-1 1v34.73c0 .55.45 1 1 1s1-.45 1-1V25.19c0-.55-.44-1-1-1z" fill="#000000" opacity="1" data-original="#000000"></path></g></svg>