<svg xmlns="http://www.w3.org/2000/svg" version="1.1" xmlns:xlink="http://www.w3.org/1999/xlink" width="512" height="512" x="0" y="0" viewBox="0 0 512 512" style="enable-background:new 0 0 512 512" xml:space="preserve" class=""><g><path fill="#544d66" d="M466 90.5v331c0 24.6-19.9 44.5-44.5 44.5h-331C65.9 466 46 446.1 46 421.5v-331C46 65.9 65.9 46 90.5 46h331c24.6 0 44.5 19.9 44.5 44.5z" opacity="1" data-original="#544d66"></path><path fill="#605875" d="M100.5 46h331c19.1 0 34.5 15.4 34.5 34.5v331c0 19.1-15.4 34.5-34.5 34.5h-331C81.4 446 66 430.6 66 411.5v-331C66 61.4 81.4 46 100.5 46z" opacity="1" data-original="#605875" class=""></path><path fill="#ffffff" d="M238 187.4c0-6 4-10 10-10h16c6 0 10 4 10 10v137.2c0 6-4 10-10 10h-16c-6 0-10-4-10-10z" opacity="1" data-original="#ffffff" class=""></path></g></svg>