<svg xmlns="http://www.w3.org/2000/svg" version="1.1" xmlns:xlink="http://www.w3.org/1999/xlink" width="512" height="512" x="0" y="0" viewBox="0 0 512 512" style="enable-background:new 0 0 512 512" xml:space="preserve"><g transform="matrix(6.123233995736766e-17,-1,1,6.123233995736766e-17,0,512)"><circle cx="256" cy="256" r="256" fill="#fe6a16" opacity="1" data-original="#fe6a16"></circle><path fill="#e83c00" d="M263.88 511.881c119.758-3.621 218.834-89.491 242.661-203.044L447.705 250 72.25 320.251z" opacity="1" 
data-original="#e83c00"></path><path fill="#ffffff" d="m228.688 154.427 28.528 12.208 8.214 7.825 12.536 1.055 18.418 7.882 8.499 7.246 12.038 1.543 17.819 7.626 8.809 7.016 11.72 1.77 83.027 35.531a36.334 36.334 0 0 1 22.039 33.404v26.661l-73.658 8.398-317.903-8.398V166.922s12.077-8.907 23.445.802c33.592 28.694 96.578 37.792 136.469-13.297z" opacity="1" data-original="#ffffff"></path><path fill="#e9edf5" d="m438.297 244.129-83.027-35.531-11.72-1.77-8.809-7.016-17.819-7.626-12.038-1.542-8.499-7.246-18.418-7.882-12.536-1.055-8.214-7.825-1.095-.469v142.976l130.557 3.449 73.658-8.398v-26.661a36.336 36.336 0 0 0-22.04-33.404z" opacity="1" data-original="#e9edf5"></path><path fill="#cdd2e1" d="M68.774 272.701s68.235-10.498 122.122 0 154.665 43.04 269.439 17.963v18.842c0 10.208-8.275 18.483-18.483 18.483H91.615c-17.966 0-31.328-16.612-27.477-34.16z" opacity="1" data-original="#cdd2e1"></path><path fill="#afb4c8" d="M256.12 286.972v41.017h185.732c10.208 0 18.483-8.275 18.483-18.483v-18.842c-77.97 17.036-149.475 7.479-204.215-3.692z" opacity="1" data-original="#afb4c8"></path><path fill="#cdd2e1" d="m257.265 166.657-18.966 29.408 20.825 8.343 18.678-28.962z" opacity="1" data-original="#cdd2e1"></path><path fill="#afb4c8" d="m277.802 175.446-20.537-8.789-1.145 1.775v34.773l3.004 1.203zM296.384 183.398l-18.418 28.559 20.825 8.343 18.13-28.113zM334.741 199.812l-17.881 27.727 20.825 8.343 17.593-27.281z" opacity="1" data-original="#afb4c8"></path></g></svg>