<svg xmlns="http://www.w3.org/2000/svg" version="1.1" xmlns:xlink="http://www.w3.org/1999/xlink" width="512" height="512" x="0" y="0" viewBox="0 0 24 24" style="enable-background:new 0 0 512 512" xml:space="preserve" class=""><g><rect width="16" height="16" x="4" y="4" fill="#f2f2f2" rx="4" opacity="1" data-original="#f2f2f2" class=""></rect><rect width="12" height="12" x="6" y="6" fill="#ff3446" rx="3" opacity="1" data-original="#ff3446" class=""></rect><path d="M15.06 15.35c-.2-.2-.2-.51 0-.71l2.29-2.29c.19-.19.19-.51 0-.71l-2.29-2.29c-.2-.2-.2-.51 0-.71s.51-.2.71 0l2.29 2.29c.58.58.58 1.54 0 2.12l-2.29 2.29c-.2.2-.51.2-.71 0z" fill="#000000" opacity="1" data-original="#000000" class=""></path><path d="M17.99 12.5H8c-.28 0-.5-.22-.5-.5s.22-.5.5-.5h9.99c.28 0 .5.22.5.5s-.22.5-.5.5z" fill="#000000" opacity="1" data-original="#000000" class=""></path><path d="M16 20.5H8c-2.48 0-4.5-2.02-4.5-4.5V8c0-2.48 2.02-4.5 4.5-4.5h8c2.48 0 4.5 2.02 4.5 4.5 0 .28-.22.5-.5.5s-.5-.22-.5-.5c0-1.93-1.57-3.5-3.5-3.5H8C6.07 4.5 4.5 6.07 4.5 8v8c0 1.93 1.57 3.5 3.5 3.5h8c1.93 0 3.5-1.57 3.5-3.5 0-.28.22-.5.5-.5s.5.22.5.5c0 2.48-2.02 4.5-4.5 4.5z" fill="#000000" opacity="1" data-original="#000000" class=""></path></g></svg>