<svg xmlns="http://www.w3.org/2000/svg" version="1.1" xmlns:xlink="http://www.w3.org/1999/xlink" width="512" height="512" x="0" y="0" viewBox="0 0 32 32" style="enable-background:new 0 0 512 512" xml:space="preserve" class=""><g><path d="M25.162 3.527H22.6V3a1 1 0 0 0-2 0v.527H17V3a1 1 0 0 0-2 0v.527h-3.6V3a1 1 0 0 0-2 0v.527H6.839a3.04 3.04 0 0 0-3.036 3.036v20.4A3.04 3.04 0 0 0 6.838 30h18.324a3.04 3.04 0 0 0 3.036-3.036V6.563a3.04 3.04 0 0 0-3.036-3.036zm1.036 23.437c0 .571-.465 1.036-1.036 1.036H6.838a1.037 1.037 0 0 1-1.036-1.036V6.563c0-.571.465-1.036 1.036-1.036H9.4v.527a1 1 0 0 0 2 0v-.527H15v.527a1 1 0 0 0 2 0v-.527h3.6v.527a1 1 0 0 0 2 0v-.527h2.562c.571 0 1.036.465 1.036 1.036z" fill="#000000" opacity="1" data-original="#000000" class=""></path><path d="M21.09 16.527H10.91a1 1 0 0 0 0 2h10.18a1 1 0 0 0 0-2zM21.09 21.617H10.91a1 1 0 0 0 0 2h10.18a1 1 0 0 0 0-2zM10.91 13.437h4.072a1 1 0 0 0 0-2H10.91a1 1 0 0 0 0 2z" fill="#000000" opacity="1" data-original="#000000" class=""></path></g></svg>