<svg xmlns="http://www.w3.org/2000/svg" version="1.1" xmlns:xlink="http://www.w3.org/1999/xlink" width="512" height="512" x="0" y="0" viewBox="0 0 256 256" style="enable-background:new 0 0 512 512" xml:space="preserve" class=""><g><path fill="#efbf27" d="M216.3 120.14v48.98H42.7v-48.98h28.94V71.16h28.93V22.18h57.86v48.98h28.93v48.98z" opacity="1" data-original="#efbf27" class=""></path><path fill="#aeaeae" d="M221.007 233.974H37.993c-17.91 0-32.429-14.519-32.429-32.429 0-17.91 14.519-32.429 32.429-32.429h183.014c17.91 0 32.429 14.519 32.429 32.429 0 17.911-14.519 32.429-32.429 32.429z" opacity="1" data-original="#aeaeae"></path><path fill="#4a4842" d="M37.993 218.919c-9.58 0-17.374-7.794-17.374-17.374s7.794-17.374 17.374-17.374h183.014c9.58 0 17.374 7.794 17.374 17.374s-7.794 17.374-17.374 17.374z" opacity="1" data-original="#4a4842"></path><circle cx="221.007" cy="201.546" r="17.374" fill="#efefef" opacity="1" data-original="#efefef"></circle><circle cx="221.007" cy="201.546" r="6.62" fill="#f0c020" opacity="1" data-original="#f0c020"></circle><circle cx="160.002" cy="201.546" r="17.374" fill="#efefef" opacity="1" data-original="#efefef"></circle><circle cx="160.002" cy="201.546" r="6.62" fill="#f0c020" opacity="1" data-original="#f0c020"></circle><circle cx="98.998" cy="201.546" r="17.374" fill="#efefef" opacity="1" data-original="#efefef"></circle><circle cx="98.998" cy="201.546" r="6.62" fill="#f0c020" opacity="1" data-original="#f0c020"></circle><circle cx="37.993" cy="201.546" r="17.374" fill="#efefef" opacity="1" data-original="#efefef"></circle><circle cx="37.993" cy="201.546" r="6.62" fill="#f0c020" opacity="1" data-original="#f0c020"></circle><path fill="#fb5c3c" d="m78.157 141.662-4.674-4.161a2 2 0 0 0-2.66 0l-4.674 4.161c-1.289 1.148-3.33.233-3.33-1.494v-20.032h18.667v20.032c.001 1.727-2.04 2.642-3.329 1.494zM136.02 141.662l-4.674-4.161a2 2 0 0 0-2.66 0l-4.674 4.161c-1.289 1.148-3.33.233-3.33-1.494v-20.032h18.667v20.032c.001 1.727-2.039 2.642-3.329 1.494z" opacity="1" data-original="#fb5c3c" class=""></path><path fill="#f7e4b0" d="M203.633 161.171h-3a2.5 2.5 0 1 1 0-5h3a2.5 2.5 0 1 1 0 5zm-13 0H55.367a2.5 2.5 0 1 1 0-5h135.266a2.5 2.5 0 1 1 0 5zM175.667 112.986h-3a2.5 2.5 0 1 1 0-5h3a2.5 2.5 0 1 1 0 5zm-13 0H83.333a2.5 2.5 0 1 1 0-5h79.334a2.5 2.5 0 1 1 0 5zM149.615 63.5h-3a2.5 2.5 0 1 1 0-5h3a2.5 2.5 0 1 1 0 5zm-13 0h-27.23a2.5 2.5 0 1 1 0-5h27.23a2.5 2.5 0 1 1 0 5z" opacity="1" data-original="#f7e4b0"></path><path fill="#fb5c3c" d="m193.884 141.662-4.674-4.161a2 2 0 0 0-2.66 0l-4.674 4.161c-1.289 1.148-3.33.233-3.33-1.494v-20.032h18.667v20.032c0 1.727-2.04 2.642-3.329 1.494zM107.088 92.682l-4.674-4.161a2 2 0 0 0-2.66 0l-4.674 4.161c-1.289 1.148-3.33.233-3.33-1.494V71.157h18.667v20.032c.001 1.726-2.039 2.641-3.329 1.493zM164.952 92.682l-4.674-4.161a2 2 0 0 0-2.66 0l-4.674 4.161c-1.289 1.148-3.33.233-3.33-1.494V71.157h18.667v20.032c.001 1.726-2.04 2.641-3.329 1.493z" opacity="1" data-original="#fb5c3c" class=""></path><path d="M213.86 98.902c-1.175-5.068-1.952-8.416-8.821-10.686-2.284-.754-2.279-3.995 0-4.748 3.987-1.317 6.868-2.269 8.821-10.686.597-2.566 4.272-2.573 4.871 0 2 8.617 5 9.425 8.821 10.687 2.284.754 2.279 3.994 0 4.747-3.988 1.318-6.869 2.271-8.821 10.686-.598 2.578-4.274 2.578-4.871 0z" fill="#000000" opacity="1" data-original="#000000" class=""></path><path fill="#f0c020" d="M220.675 85.865c-1.63 1.1-3.09 2.61-4.32 4.89-.99-1.76-2.41-3.42-4.57-4.85 1.72-1.13 3.24-2.69 4.52-5.1 1.3 2.45 2.81 4 4.37 5.06z" opacity="1" data-original="#f0c020"></path><path d="M40.269 98.902c-1.175-5.068-1.952-8.416-8.821-10.686-2.284-.754-2.279-3.995 0-4.748 3.987-1.317 6.868-2.269 8.821-10.686.597-2.566 4.272-2.573 4.871 0 2 8.617 5 9.425 8.821 10.687 2.284.754 2.279 3.994 0 4.747-3.988 1.318-6.869 2.271-8.821 10.686-.597 2.578-4.273 2.578-4.871 0z" fill="#000000" opacity="1" data-original="#000000" class=""></path><path fill="#f0c020" d="M47.085 85.865c-1.63 1.1-3.09 2.61-4.32 4.89-.99-1.76-2.41-3.42-4.57-4.85 1.72-1.13 3.24-2.69 4.52-5.1 1.3 2.45 2.81 4 4.37 5.06z" opacity="1" data-original="#f0c020"></path><path fill="#fb5c3c" d="M139.35 22.18v19.88c0 1.72-2.04 2.64-3.33 1.49l-4.67-4.16c-.76-.67-1.91-.67-2.66 0l-4.68 4.16c-1.29 1.15-3.33.23-3.33-1.49V22.18z" opacity="1" data-original="#fb5c3c" class=""></path><path d="M37.99 236.48h151.02c1.37 0 2.5-1.13 2.5-2.5 0-1.38-1.12-2.49-2.49-2.5 0-.01-.01-.01-.01-.01H37.99c-16.471-.02-29.9-13.45-29.931-29.92.03-16.48 13.46-29.9 29.931-29.93h183.02c16.47.03 29.9 13.45 29.93 29.93-.029 16.47-13.46 29.9-29.93 29.92h-12a2.51 2.51 0 0 0-2.5 2.51c0 1.37 1.12 2.5 2.5 2.5h12c19.311-.021 34.909-15.623 34.93-34.93-.02-19.357-15.662-34.93-34.93-34.93h-2.22v-46.48c0-1.401-1.131-2.5-2.49-2.5-12.349 0-24.992-.003-26.44-.003V71.16c0-1.387-1.112-2.5-2.5-2.5l-26.43-.002V22.18c0-1.386-1.111-2.5-2.5-2.5h-57.86a2.494 2.494 0 0 0-2.5 2.5v46.478c-15.242 0 5.248.002-26.43.002a2.489 2.489 0 0 0-2.5 2.5v13.33a2.5 2.5 0 0 0 5 0V73.66h15.112v17.529c0 3.887 4.592 5.943 7.491 3.361l4.342-3.865 4.341 3.865c2.906 2.584 7.492.521 7.492-3.361V73.657h14.602v43.979H74.14V104.49a2.5 2.5 0 0 0-5-.02v13.167c-.404 0-7.674.003-26.439.003a2.489 2.489 0 0 0-2.49 2.5v46.48h-2.22c-19.292 0-34.931 15.603-34.931 34.93 0 19.263 15.583 34.909 34.93 34.93zm175.8-69.86h-52.86v-15.48a2.5 2.5 0 0 0-5 0v15.48h-52.861v-43.983h15.115v17.532c0 3.888 4.592 5.941 7.492 3.361l4.341-3.865 4.341 3.865c2.909 2.588 7.492.515 7.492-3.361v-17.532h14.08v8.503a2.5 2.5 0 0 0 5 0v-8.503h15.117v17.532c0 3.888 4.592 5.941 7.492 3.361l4.341-3.865 4.341 3.865c2.912 2.589 7.493.513 7.493-3.361V122.64h14.076zm-19.076-43.98v16.415l-3.842-3.42a4.5 4.5 0 0 0-5.984 0l-3.841 3.419v-16.417l13.667.003zm-42.599-48.983 13.666.002v16.414l-3.84-3.418a4.498 4.498 0 0 0-5.985 0l-3.841 3.419zM123.184 24.68h13.666v16.262l-3.841-3.419a4.499 4.499 0 0 0-5.984 0l-3.841 3.419zm-5 0v17.377c0 3.887 4.592 5.943 7.492 3.361l4.341-3.865 4.341 3.865c2.911 2.589 7.492.514 7.492-3.361V24.68h14.08v43.978h-52.86V24.68zm-10.266 65.394-3.841-3.419a4.5 4.5 0 0 0-5.984 0l-3.841 3.419V73.66c7.106 0 3.863-.002 13.666-.002zm24.602-16.417h14.596v17.531c0 3.887 4.594 5.943 7.492 3.361l4.341-3.865 4.341 3.865c2.911 2.588 7.492.515 7.492-3.361V73.66h14.078v43.977h-52.34zm4.33 48.98v16.417l-3.841-3.419a4.499 4.499 0 0 0-5.984 0l-3.841 3.419v-16.417zm-71.53.003c7.152 0 3.838-.003 13.666-.003v16.417l-3.842-3.42a4.5 4.5 0 0 0-5.983.001l-3.841 3.419zm-20.12 0h15.12v17.529c0 3.886 4.593 5.943 7.491 3.361l4.342-3.865 4.341 3.865c2.905 2.584 7.492.52 7.492-3.361v-17.532h14.082v43.983H45.2z" fill="#000000" opacity="1" data-original="#000000" class=""></path><path d="M196.51 233.98c0 1.37 1.12 2.5 2.5 2.5 1.37 0 2.5-1.13 2.5-2.5 0-1.38-1.13-2.51-2.5-2.51a2.51 2.51 0 0 0-2.5 2.51zM240.881 201.545c0-10.958-8.915-19.874-19.874-19.874H37.993c-10.959 0-19.874 8.915-19.874 19.874s8.915 19.874 19.874 19.874h183.014c10.959 0 19.874-8.915 19.874-19.874zm-5 0c0 8.202-6.673 14.874-14.874 14.874s-14.874-6.672-14.874-14.874c0-8.201 6.673-14.874 14.874-14.874s14.874 6.673 14.874 14.874zm-61.005 0c0 8.202-6.673 14.874-14.874 14.874s-14.873-6.672-14.873-14.874c0-8.201 6.672-14.874 14.873-14.874s14.874 6.673 14.874 14.874zm-61.005 0c0 8.202-6.672 14.874-14.873 14.874s-14.874-6.672-14.874-14.874c0-8.201 6.673-14.874 14.874-14.874s14.873 6.673 14.873 14.874zm-90.752 0c0-8.201 6.673-14.874 14.874-14.874s14.874 6.672 14.874 14.874-6.673 14.874-14.874 14.874-14.874-6.672-14.874-14.874zm28.01 14.874c4.121-3.644 6.738-8.953 6.738-14.874s-2.616-11.229-6.738-14.874h34.732c-4.121 3.644-6.738 8.953-6.738 14.874s2.616 11.23 6.738 14.874zm61.005 0c4.121-3.644 6.738-8.953 6.738-14.874s-2.616-11.229-6.737-14.874h34.732c-4.121 3.644-6.737 8.953-6.737 14.874s2.617 11.23 6.738 14.874zm61.004 0c4.121-3.644 6.738-8.953 6.738-14.874s-2.616-11.229-6.738-14.874h34.732c-4.121 3.644-6.738 8.953-6.738 14.874s2.616 11.23 6.738 14.874z" fill="#000000" opacity="1" data-original="#000000" class=""></path><path d="M211.887 201.545c0 5.029 4.091 9.121 9.12 9.121s9.12-4.091 9.12-9.121c0-5.029-4.091-9.12-9.12-9.12s-9.12 4.092-9.12 9.12zm13.24 0c0 2.272-1.849 4.121-4.12 4.121s-4.12-1.849-4.12-4.121 1.849-4.12 4.12-4.12 4.12 1.848 4.12 4.12zM160.002 210.666c5.029 0 9.12-4.091 9.12-9.121 0-5.029-4.091-9.12-9.12-9.12s-9.12 4.091-9.12 9.12c0 5.03 4.091 9.121 9.12 9.121zm0-13.241c2.271 0 4.12 1.848 4.12 4.12s-1.849 4.121-4.12 4.121-4.12-1.849-4.12-4.121 1.848-4.12 4.12-4.12zM98.998 210.666c5.029 0 9.12-4.091 9.12-9.121 0-5.029-4.091-9.12-9.12-9.12s-9.12 4.091-9.12 9.12c0 5.03 4.091 9.121 9.12 9.121zm0-13.241c2.271 0 4.12 1.848 4.12 4.12s-1.849 4.121-4.12 4.121-4.12-1.849-4.12-4.121 1.849-4.12 4.12-4.12zM47.113 201.545c0-5.029-4.091-9.12-9.12-9.12s-9.12 4.091-9.12 9.12 4.091 9.121 9.12 9.121 9.12-4.091 9.12-9.121zm-13.24 0c0-2.272 1.849-4.12 4.12-4.12s4.12 1.848 4.12 4.12-1.849 4.121-4.12 4.121-4.12-1.849-4.12-4.121z" fill="#000000" opacity="1" data-original="#000000" class=""></path><circle cx="71.64" cy="94.49" r="2.5" fill="#000000" opacity="1" data-original="#000000" class=""></circle><circle cx="158.43" cy="141.14" r="2.5" fill="#000000" opacity="1" data-original="#000000" class=""></circle></g></svg>