<svg xmlns="http://www.w3.org/2000/svg" version="1.1" xmlns:xlink="http://www.w3.org/1999/xlink" width="512" height="512" x="0" y="0" viewBox="0 0 64 64" style="enable-background:new 0 0 512 512" xml:space="preserve" class=""><g><path fill="#5099e2" d="M49 23v37a3 3 0 0 1-3 3H18a3 3 0 0 1-3-3V23l.01-.09A5.442 5.442 0 0 0 16 23a3.663 3.663 0 0 0 4-4 3.663 3.663 0 0 0 4 4 3.663 3.663 0 0 0 4-4 3.663 3.663 0 0 0 4 4 3.663 3.663 0 0 0 4-4 3.663 3.663 0 0 0 4 4 3.663 3.663 0 0 0 4-4 3.663 3.663 0 0 0 4 4 5.442 5.442 0 0 0 .99-.09z" opacity="1" data-original="#5099e2" class=""></path><path fill="#efbc56" d="M57.5 44.5A5.5 5.5 0 1 1 52 50a5.5 5.5 0 0 1 5.5-5.5zM60 51v-2h-1l-3-1v4l3-1z" opacity="1" data-original="#efbc56"></path><path fill="#c12b33" d="M60 49v2h-1l-3 1v-4l3 1z" opacity="1" data-original="#c12b33" class=""></path><circle cx="57" cy="30" r="2" fill="#c12b33" opacity="1" data-original="#c12b33" class=""></circle><path fill="#5099e2" d="M49 4v2H36.97A2.724 2.724 0 0 0 40 4l1-3h5a3 3 0 0 1 3 3z" opacity="1" data-original="#5099e2" class=""></path><path fill="#4575af" d="m41 1-1 3a2.724 2.724 0 0 1-3.03 2H27a2.709 2.709 0 0 1-3-2l-1-3z" opacity="1" data-original="#4575af" class=""></path><path fill="#5099e2" d="M27 6H15V4a3 3 0 0 1 3-3h5l1 3a2.709 2.709 0 0 0 3 2z" opacity="1" data-original="#5099e2" class=""></path><circle cx="6.5" cy="34" r="5.5" fill="#efbc56" opacity="1" data-original="#efbc56"></circle><circle cx="8" cy="51" r="2" fill="#c12b33" opacity="1" data-original="#c12b33" class=""></circle><path fill="#4575af" d="M46 64H18a4 4 0 0 1-4-4V23a1 1 0 0 1 2 0v37a2 2 0 0 0 2 2h28a2 2 0 0 0 2-2V23a1 1 0 0 1 2 0v37a4 4 0 0 1-4 4zM49 10a1 1 0 0 1-1-1V4a2 2 0 0 0-2-2H18a2 2 0 0 0-2 2v5a1 1 0 0 1-2 0V4a4 4 0 0 1 4-4h28a4 4 0 0 1 4 4v5a1 1 0 0 1-1 1z" opacity="1" data-original="#4575af" class=""></path><path fill="#c12b33" d="M6 37a1 1 0 0 1-.707-.293l-2-2a1 1 0 0 1 1.414-1.414l1.185 1.185L8.2 31.4a1 1 0 1 1 1.6 1.2l-3 4a1 1 0 0 1-.729.4z" opacity="1" data-original="#c12b33" class=""></path><path fill="#a5202d" d="M52 15v4c0 2.5-1.39 3.61-3.01 3.91A5.442 5.442 0 0 1 48 23a3.663 3.663 0 0 1-4-4v-4z" opacity="1" data-original="#a5202d" class=""></path><path fill="#c12b33" d="m49 6 3 9h-8l-2-9z" opacity="1" data-original="#c12b33" class=""></path><path fill="#f4dac9" d="M44 15v4a3.663 3.663 0 0 1-4 4 3.663 3.663 0 0 1-4-4v-4z" opacity="1" data-original="#f4dac9"></path><path fill="#ffe9d9" d="m42 6 2 9h-8l-1-9h1.97z" opacity="1" data-original="#ffe9d9" class=""></path><path fill="#a5202d" d="M36 15v4a3.663 3.663 0 0 1-4 4 3.663 3.663 0 0 1-4-4v-4z" opacity="1" data-original="#a5202d" class=""></path><path fill="#c12b33" d="m35 6 1 9h-8l1-9z" opacity="1" data-original="#c12b33" class=""></path><path fill="#ffe9d9" d="m29 6-1 9h-8l2-9h5z" opacity="1" data-original="#ffe9d9" class=""></path><path fill="#f4dac9" d="M28 15v4a3.663 3.663 0 0 1-4 4 3.663 3.663 0 0 1-4-4v-4z" opacity="1" data-original="#f4dac9"></path><path fill="#c12b33" d="m22 6-2 9h-8l3-9z" opacity="1" data-original="#c12b33" class=""></path><path fill="#a5202d" d="M20 15v4a3.663 3.663 0 0 1-4 4 5.442 5.442 0 0 1-.99-.09C13.39 22.61 12 21.5 12 19v-4zM59 49h1v2h-1z" opacity="1" data-original="#a5202d" class=""></path><path fill="#3184c9" d="M40 23a3.663 3.663 0 0 1-4-4 3.663 3.663 0 0 1-4 4 3.663 3.663 0 0 1-4-4 3.663 3.663 0 0 1-4 4 3.663 3.663 0 0 1-4-4 3.663 3.663 0 0 1-4 4v4a3.663 3.663 0 0 0 4-4 3.663 3.663 0 0 0 4 4 3.663 3.663 0 0 0 4-4 3.663 3.663 0 0 0 4 4 3.663 3.663 0 0 0 4-4 3.663 3.663 0 0 0 4 4 3.663 3.663 0 0 0 4-4 3.663 3.663 0 0 0 4 4v-4a3.663 3.663 0 0 1-4-4 3.663 3.663 0 0 1-4 4z" opacity="1" data-original="#3184c9"></path><path fill="#306191" d="M15.01 22.91a4.255 4.255 0 0 1-.933-.293A1 1 0 0 0 14 23v3.584a4.191 4.191 0 0 0 1 .323h.01A5.442 5.442 0 0 0 16 27v-4a5.442 5.442 0 0 1-.99-.09zM49.923 22.617a4.255 4.255 0 0 1-.933.293A5.442 5.442 0 0 1 48 23v4a5.442 5.442 0 0 0 .99-.09H49a4.191 4.191 0 0 0 1-.323V23a1 1 0 0 0-.077-.383z" opacity="1" data-original="#306191"></path><path fill="#76b3e5" d="M48 60V46.468L32.468 62H46a2 2 0 0 0 2-2z" opacity="1" data-original="#76b3e5"></path><path fill="#5493c6" d="m49 45.468-1 1V60a2 2 0 0 1-2 2H32.468l-1 1-1 1H46a4 4 0 0 0 4-4V44.468z" opacity="1" data-original="#5493c6"></path><path fill="#c12b33" d="m45 39-1 4-4-1v-1h1v-3z" opacity="1" data-original="#c12b33" class=""></path><path fill="#ffe9d9" d="M41 38v3h-7v-6h7z" opacity="1" data-original="#ffe9d9" class=""></path><path fill="#f4dac9" d="M40 42v9h-6V41h6z" opacity="1" data-original="#f4dac9"></path><path fill="#a5202d" d="M40 32v3h-8l5-5zM30 41h4v10h-4z" opacity="1" data-original="#a5202d" class=""></path><path fill="#c12b33" d="M34 35v6h-4v-6h2z" opacity="1" data-original="#c12b33" class=""></path><path fill="#a5202d" d="M32 35h-8v-3l3-2z" opacity="1" data-original="#a5202d" class=""></path><path fill="#f4dac9" d="M30 41v10h-6V41z" opacity="1" data-original="#f4dac9"></path><path fill="#ffe9d9" d="M30 35v6h-7v-6h1z" opacity="1" data-original="#ffe9d9" class=""></path><path fill="#c12b33" d="M24 41v1l-4 1-1-4 4-1v3z" opacity="1" data-original="#c12b33" class=""></path></g></svg>