<svg xmlns="http://www.w3.org/2000/svg" version="1.1" xmlns:xlink="http://www.w3.org/1999/xlink" width="512" height="512" x="0" y="0" viewBox="0 0 367.379 367.379" style="enable-background:new 0 0 512 512" xml:space="preserve" class=""><g><path d="M194.547 10.856c-94.305 0-171.195 75.927-172.805 169.837L0 181.664l46.875 74.764 40.035-78.63-21.592.97C67.91 109.73 124.875 54.366 194.547 54.366c71.326 0 129.342 58.024 129.342 129.338 0 71.313-58.016 129.336-129.342 129.336-32.588 0-63.717-12.152-87.645-34.242l-29.48 31.995c31.975 29.503 73.578 45.732 117.125 45.732 95.299 0 172.832-77.519 172.832-172.82 0-95.305-77.533-172.849-172.832-172.849z" fill="#000000" opacity="1" data-original="#000000"></path></g></svg>