<svg xmlns="http://www.w3.org/2000/svg" version="1.1" xmlns:xlink="http://www.w3.org/1999/xlink" width="512" height="512" x="0" y="0" viewBox="0 0 3000 3000" style="enable-background:new 0 0 512 512" xml:space="preserve" fill-rule="evenodd" class=""><g><circle cx="1500" cy="1500" r="1500" fill="#44d97c" opacity="1" data-original="#44d97c"></circle><path fill="#ffffff" d="M2022 2353H979c-183 0-332-149-332-331V979c0-88 35-171 98-234s146-98 234-98h1043c182 0 331 149 331 332v1043c0 182-149 331-331 331zM979 754c-124 0-225 101-225 225v1043c0 124 101 224 225 224h1043c124 0 224-100 224-224V979c0-124-100-225-224-225z" opacity="1" data-original="#ffffff"></path><path fill="#ffffff" d="M2022 2187h-547c-30 0-54-24-54-53 0-30 24-54 54-54h547c31 0 58-27 58-58v-241c0-30 24-54 54-54 29 0 53 24 53 54v241c0 43-17 85-49 116-31 32-73 49-116 49zm-831 0H979c-43 0-85-17-116-49-32-31-49-72-49-116v-603c0-30 24-54 53-54 30 0 54 24 54 54v603c0 31 27 58 58 58h212c30 0 54 24 54 54 0 29-24 53-54 53zm943-631c-30 0-54-24-54-53V979c0-31-27-58-58-58H979c-31 0-58 27-58 58v143c0 30-24 54-54 54-29 0-53-24-53-54V979c0-43 17-85 49-116 31-32 72-49 116-49h1043c43 0 85 17 116 49 32 31 49 72 49 116v524c0 29-24 53-53 53z" opacity="1" data-original="#ffffff"></path><path fill="#ffffff" d="M1128 1926c-29 0-53-24-53-53v-244c0-30 24-54 53-54s53 24 53 54v244c0 29-23 53-53 53z" opacity="1" data-original="#ffffff"></path><path fill="#ffffff" d="M1372 1926h-244c-29 0-53-24-53-53 0-30 24-54 53-54h244c29 0 53 24 53 54 0 29-23 53-53 53zM1873 1181h-244c-30 0-54-24-54-53 0-30 24-54 54-54l244 1c29 0 53 24 53 53s-24 53-53 53z" opacity="1" data-original="#ffffff"></path><path fill="#ffffff" d="M1873 1425c-30 0-54-24-54-53v-244c0-30 24-54 54-54 29 0 53 24 53 54v244c0 30-24 53-53 53zM1128 1425c-29 0-53-24-53-53v-244c0-30 24-54 53-54s53 24 53 54v244c0 30-23 53-53 53z" opacity="1" data-original="#ffffff"></path><path fill="#ffffff" d="M1372 1181h-244c-29 0-53-24-53-53 0-30 24-54 53-54l244 1c29 0 53 24 53 53s-23 53-53 53zM1873 1926h-244c-30 0-54-24-54-53 0-30 24-54 54-54h244c29 0 53 24 53 54 0 29-24 53-53 53z" opacity="1" data-original="#ffffff"></path><path fill="#ffffff" d="M1873 1926c-30 0-54-24-54-53v-244c0-30 24-54 54-54 29 0 53 24 53 54v244c0 29-24 53-53 53zM1371 1424c-14 0-28-5-38-15l-243-243c-20-21-20-55 0-75 21-21 55-21 76 0l243 243c20 20 20 54 0 75-11 10-24 15-38 15zM1630 1424c-14 0-28-5-38-15-21-21-21-55 0-76l243-243c21-20 55-20 75 0 21 21 21 55 0 76l-243 243c-10 10-24 15-37 15zM1128 1926c-14 0-27-5-38-16-20-20-20-54 0-75l243-243c21-21 55-21 76 0 20 21 20 55 0 75l-243 243c-11 11-24 16-38 16z" opacity="1" data-original="#ffffff"></path><path fill="#ffffff" d="M1873 1926c-14 0-28-5-38-16l-243-243c-21-20-21-54 0-75s55-21 75 0l243 243c21 21 21 55 0 75-10 11-24 16-37 16z" opacity="1" data-original="#ffffff"></path></g></svg>