<svg xmlns="http://www.w3.org/2000/svg" version="1.1" xmlns:xlink="http://www.w3.org/1999/xlink" width="512" height="512" x="0" y="0" viewBox="0 0 256 256" style="enable-background:new 0 0 512 512" xml:space="preserve" class=""><g><path fill="#5290db" d="M240.216 240.5H15.784a3.899 3.899 0 0 0-3.899 3.899v5.201a3.899 3.899 0 0 0 3.899 3.899h224.432a3.899 3.899 0 0 0 3.899-3.899v-5.201a3.899 3.899 0 0 0-3.899-3.899z" opacity="1" data-original="#5290db"></path><path fill="#70d6f9" d="M169.609 6.162c-3.162-.538-5.636-2.975-6.29-6.057-.001-.14-.282-.138-.281.002-.608 3.092-3.046 5.566-6.199 6.151-.14.001-.139.212.002.281 3.162.538 5.636 2.975 6.29 6.057.001.14.282.138.281-.002.608-3.092 3.046-5.566 6.199-6.151.14-.072.138-.282-.002-.281z" opacity="1" data-original="#70d6f9"></path><path fill="#fc657e" d="M226.8 171.432h-2.3v-2.3c0-1.7-1.4-3.2-3.2-3.2s-3.2 1.4-3.2 3.2v2.3h-2.3c-1.7 0-3.2 1.4-3.2 3.2s1.4 3.2 3.2 3.2h2.3v2.3c0 1.7 1.4 3.2 3.2 3.2s3.2-1.4 3.2-3.2v-2.3h2.3c1.7 0 3.2-1.4 3.2-3.2s-1.4-3.2-3.2-3.2z" opacity="1" data-original="#fc657e"></path><path fill="#f5c84c" d="M60.8 73.182c-4.5-.8-8-4.3-8.9-8.7 0-.2-.4-.2-.4 0-.9 4.4-4.4 7.9-8.9 8.7-.2 0-.2.3 0 .4 4.5.8 8 4.3 8.9 8.7 0 .2.4.2.4 0 .9-4.4 4.4-7.9 8.9-8.7.2-.1.2-.4 0-.4zM214.8 202.332a3.4 3.4 0 1 0 0 6.8 3.4 3.4 0 0 0 0-6.8z" opacity="1" data-original="#f5c84c"></path><path fill="#87d147" d="M66.8 43.332a3.4 3.4 0 1 0 0 6.8 3.4 3.4 0 0 0 0-6.8z" opacity="1" data-original="#87d147"></path><path fill="#70d6f9" d="M69.899 231.269c.015-1.61 1.37-2.892 2.981-2.892h6.319a4.224 4.224 0 0 1-4.224-4.224v-48.329l-8.555 2.153a14.256 14.256 0 0 0-10.755 13.033l-1.993 34.359c2.849 1.392 4.828 4.313 4.828 7.682v7.448h20.54c-5.078.001-9.189-4.14-9.141-9.23zM176.96 240.5h26.245l-2.87-49.489a14.257 14.257 0 0 0-10.755-13.033l-8.555-2.153v48.329a4.224 4.224 0 0 1-4.224 4.224h6.319c1.61 0 2.965 1.282 2.981 2.892a9.142 9.142 0 0 1-9.141 9.23z" opacity="1" data-original="#70d6f9"></path><path fill="#f9d0b4" d="M164.123 84.175a1.936 1.936 0 0 0-1.865-1.899c-15.009-.44-22.917-6.388-25.956-9.367a1.946 1.946 0 0 0-2.892.182c-13.196 16.594-32.662 14.253-39.207 12.883-1.189-.249-2.331.648-2.332 1.863v29.087c0 13.844 7.896 25.927 19.403 31.987h33.45c11.507-6.06 19.403-18.143 19.403-31.987V84.74c.001-.189-.001-.377-.004-.565z" opacity="1" data-original="#f9d0b4"></path><path fill="#754e34" d="M161.436 49.211c0-.891.046-1.77.125-2.641a20.408 20.408 0 0 0-5.29-.717c-3.85 0-7.449 1.088-10.542 2.943-3.613-6.03-10.195-10.101-17.698-10.101h-10.597c-20.51 0-37.292 16.781-37.292 37.292v16.709a15.011 15.011 0 0 1 11.729-3.123v-1.736c.001-1.215 1.142-2.112 2.332-1.863 6.545 1.37 26.011 3.711 39.207-12.883a1.945 1.945 0 0 1 2.891-.182c3.039 2.979 10.947 8.927 25.956 9.367a1.936 1.936 0 0 1 1.865 1.899c.004.188.006.376.006.565v4.832a15.136 15.136 0 0 1 2.318-.184c4.066 0 7.749 1.617 10.462 4.233v-18.86c-9.195-4.819-15.472-14.449-15.472-25.55z" opacity="1" data-original="#754e34"></path><path fill="#f9d0b4" d="M166.447 89.389c-.789 0-1.562.067-2.318.184v27.351c0 .815-.037 1.621-.091 2.423.786.127 1.587.21 2.409.21 8.331 0 15.084-6.753 15.084-15.084s-6.754-15.084-15.084-15.084zM91.872 116.923V89.572a15.136 15.136 0 0 0-2.318-.184c-8.331 0-15.084 6.753-15.084 15.084s6.753 15.084 15.084 15.084c.822 0 1.623-.084 2.409-.21v-.001a35.947 35.947 0 0 1-.091-2.422zM176.96 240.5h26.245l-1.11-19.141h-21.07v2.794a4.224 4.224 0 0 1-4.224 4.224h6.319c1.61 0 2.965 1.282 2.981 2.892a9.142 9.142 0 0 1-9.141 9.231zM69.899 231.269c.015-1.61 1.37-2.892 2.981-2.892h6.319a4.224 4.224 0 0 1-4.224-4.224v-2.794h-21.07l-.233 4.011c2.849 1.392 4.828 4.313 4.828 7.682v7.448h20.54a9.142 9.142 0 0 1-9.141-9.231z" opacity="1" data-original="#f9d0b4"></path><path d="M140.41 123.578a2.5 2.5 0 0 0-3.522.31c-1.732 2.067-4.676 3.301-7.873 3.301s-6.14-1.234-7.873-3.301a2.5 2.5 0 0 0-3.832 3.212c2.671 3.187 7.047 5.089 11.705 5.089s9.033-1.902 11.705-5.089a2.5 2.5 0 0 0-.31-3.522z" fill="#000000" opacity="1" data-original="#000000"></path><circle cx="144.006" cy="106.384" r="4.61" fill="#000000" opacity="1" data-original="#000000"></circle><circle cx="113.044" cy="106.384" r="4.61" fill="#000000" opacity="1" data-original="#000000"></circle><path d="M202.832 190.872a16.683 16.683 0 0 0-12.641-15.318l-7.6-1.913a2.5 2.5 0 0 0-1.221 4.849l7.6 1.913a11.71 11.71 0 0 1 8.87 10.753l2.817 48.577a2.499 2.499 0 1 0 4.991-.289zM76.473 175.447a2.499 2.499 0 0 0-3.035-1.814l-7.629 1.92c-7.151 1.8-12.231 7.957-12.64 15.313l-1.942 33.489a2.5 2.5 0 1 0 4.991.289l1.943-33.495a11.708 11.708 0 0 1 8.869-10.748l7.629-1.92a2.499 2.499 0 0 0 1.814-3.034zM166.622 84.125a4.428 4.428 0 0 0-4.292-4.349c-14.376-.421-21.768-6.192-24.279-8.654a4.45 4.45 0 0 0-3.388-1.265 4.463 4.463 0 0 0-3.21 1.676c-12.11 15.229-29.725 13.46-36.738 11.992a4.442 4.442 0 0 0-3.715.903 4.39 4.39 0 0 0-1.629 3.433v29.063c0 14.132 7.758 27.139 20.248 33.946a2.501 2.501 0 0 0 2.393-4.391c-10.881-5.93-17.64-17.255-17.64-29.556V88.557c6.872 1.313 26.88 3.34 40.619-13.443 3.809 3.559 12.02 9.083 26.638 9.642v32.167c0 12.3-6.759 23.625-17.64 29.556a2.5 2.5 0 0 0 2.393 4.391c12.489-6.807 20.248-19.814 20.248-33.946V84.74a61.846 61.846 0 0 0-.008-.615z" fill="#000000" opacity="1" data-original="#000000"></path><path d="M161.488 43.95c-4.943-1.15-10.288-.6-14.943 1.583-4.352-5.812-11.248-9.337-18.514-9.337h-10.598c-21.941 0-39.792 17.851-39.792 39.792v15.936a2.5 2.5 0 1 0 5 0V75.986c0-19.184 15.607-34.792 34.792-34.792h10.598c6.31 0 12.27 3.405 15.553 8.886a2.5 2.5 0 0 0 3.43.859c4.025-2.414 8.891-3.155 13.34-2.12a2.5 2.5 0 1 0 1.134-4.869zM176.909 73.083a2.5 2.5 0 0 0-2.5 2.5v17.329a2.5 2.5 0 1 0 5 0V75.583a2.5 2.5 0 0 0-2.5-2.5z" fill="#000000" opacity="1" data-original="#000000"></path><path d="M166.447 86.889c-.489 0-.972.021-1.45.062a2.501 2.501 0 0 0-2.28 2.703 2.505 2.505 0 0 0 2.703 2.28 12.02 12.02 0 0 1 1.027-.044c6.939 0 12.584 5.645 12.584 12.584 0 6.938-5.645 12.583-12.584 12.583-.368 0-.741-.02-1.142-.062a2.5 2.5 0 1 0-.516 4.974 16.05 16.05 0 0 0 1.658.088c9.696 0 17.584-7.888 17.584-17.583s-7.888-17.585-17.584-17.585zM90.515 117.012a10.91 10.91 0 0 1-.961.044c-6.939 0-12.584-5.645-12.584-12.583 0-6.939 5.645-12.584 12.584-12.584.331 0 .659.014.982.041a2.493 2.493 0 0 0 2.694-2.289 2.5 2.5 0 0 0-2.289-2.694c-.458-.037-.92-.057-1.388-.057-9.696 0-17.584 7.888-17.584 17.584s7.888 17.583 17.584 17.583c.476 0 .945-.023 1.41-.065a2.5 2.5 0 0 0-.448-4.98zM200.929 218.859h-19.558a2.5 2.5 0 1 0 0 5h19.558a2.5 2.5 0 1 0 0-5zM74.011 218.859h-19.31a2.5 2.5 0 1 0 0 5h19.311a2.5 2.5 0 1 0-.001-5z" fill="#000000" opacity="1" data-original="#000000"></path><path fill="#edf4fc" d="M176.801 148.91H79.199a4.224 4.224 0 0 0-4.224 4.224v71.019a4.224 4.224 0 0 0 4.224 4.224h97.603a4.224 4.224 0 0 0 4.224-4.224v-71.019a4.225 4.225 0 0 0-4.225-4.224z" opacity="1" data-original="#edf4fc"></path><path fill="#dae6f1" d="M183.12 228.377H72.88a2.981 2.981 0 0 0-2.981 2.981 9.14 9.14 0 0 0 9.141 9.141h97.92a9.14 9.14 0 0 0 9.141-9.141 2.98 2.98 0 0 0-2.981-2.981z" opacity="1" data-original="#dae6f1"></path><path d="M135.106 186.144h-14.212a2.5 2.5 0 1 0 0 5h14.212a2.5 2.5 0 1 0 0-5z" fill="#000000" opacity="1" data-original="#000000"></path><path d="M176.801 146.41H79.199a6.732 6.732 0 0 0-6.724 6.724v71.019a6.732 6.732 0 0 0 6.724 6.724h97.603a6.732 6.732 0 0 0 6.724-6.724v-71.019a6.733 6.733 0 0 0-6.725-6.724zm1.724 77.743c0 .951-.773 1.724-1.724 1.724H79.199a1.725 1.725 0 0 1-1.724-1.724v-71.019c0-.951.773-1.724 1.724-1.724h97.603c.951 0 1.724.773 1.724 1.724v71.019z" fill="#000000" opacity="1" data-original="#000000"></path><path d="M183.12 225.877H72.88a5.488 5.488 0 0 0-5.481 5.481c0 6.419 5.222 11.642 11.641 11.642h97.92c6.419 0 11.641-5.222 11.641-11.642a5.488 5.488 0 0 0-5.481-5.481zM176.96 238H79.04a6.649 6.649 0 0 1-6.641-6.642c0-.265.216-.481.481-.481h110.24c.265 0 .481.216.481.481A6.649 6.649 0 0 1 176.96 238z" fill="#000000" opacity="1" data-original="#000000"></path><circle cx="190.27" cy="49.211" r="28.834" fill="#b2e26d" opacity="1" data-original="#b2e26d"></circle><path fill="#edf4fc" d="M203.886 41.044a5.308 5.308 0 0 0-7.505 0l-8.515 8.515-4.268-4.268a5.308 5.308 0 0 0-7.505 7.505l8.021 8.021a5.29 5.29 0 0 0 3.753 1.554 5.294 5.294 0 0 0 3.753-1.554l12.267-12.267a5.31 5.31 0 0 0-.001-7.506z" opacity="1" data-original="#edf4fc"></path><path d="M205.653 39.275c-3.043-3.042-7.996-3.043-11.041 0l-6.747 6.747-2.5-2.5c-3.044-3.042-7.997-3.043-11.041 0s-3.044 7.997 0 11.04l8.021 8.021a7.76 7.76 0 0 0 5.52 2.286 7.759 7.759 0 0 0 5.521-2.287l12.268-12.267c3.043-3.043 3.043-7.995-.001-11.04zm-3.535 7.506-12.267 12.267c-1.06 1.061-2.909 1.061-3.97 0l-8.021-8.021a2.81 2.81 0 0 1 0-3.969c.547-.547 1.266-.821 1.985-.821s1.438.273 1.985.82l4.268 4.268c.976.977 2.56.977 3.535 0l8.514-8.514a2.811 2.811 0 0 1 3.97-.001 2.812 2.812 0 0 1 .001 3.971z" fill="#000000" opacity="1" data-original="#000000"></path><path d="M190.27 17.876c-17.278 0-31.334 14.056-31.334 31.334s14.056 31.334 31.334 31.334 31.334-14.056 31.334-31.334-14.057-31.334-31.334-31.334zm0 57.668c-14.521 0-26.334-11.813-26.334-26.334s11.813-26.334 26.334-26.334 26.334 11.813 26.334 26.334-11.813 26.334-26.334 26.334zM240.216 238H15.784a6.406 6.406 0 0 0-6.399 6.399v5.201a6.406 6.406 0 0 0 6.399 6.399h224.432a6.406 6.406 0 0 0 6.399-6.399v-5.201a6.406 6.406 0 0 0-6.399-6.399zm1.399 11.601c0 .771-.628 1.399-1.399 1.399H15.784a1.401 1.401 0 0 1-1.399-1.399V244.4c0-.771.628-1.399 1.399-1.399h224.432c.771 0 1.399.628 1.399 1.399z" fill="#000000" opacity="1" data-original="#000000"></path><path d="M49.948 222H35.052C28.958 222 24 226.958 24 233.052v7.448a2.5 2.5 0 0 0 2.5 2.5h32a2.5 2.5 0 0 0 2.5-2.5v-7.448C61 226.958 56.042 222 49.948 222zM56 238H29v-4.948A6.059 6.059 0 0 1 35.052 227h14.896A6.059 6.059 0 0 1 56 233.052z" fill="#000000" opacity="1" data-original="#000000"></path></g></svg>