<svg xmlns="http://www.w3.org/2000/svg" version="1.1" xmlns:xlink="http://www.w3.org/1999/xlink" width="512" height="512" x="0" y="0" viewBox="0 0 512 512" style="enable-background:new 0 0 512 512" xml:space="preserve" class=""><g><path d="M512 256c0 141.383-114.617 256-256 256S0 397.383 0 256 114.617 0 256 0s256 114.617 256 256" style="" fill="#26b99a" data-original="#26b99a" class=""></path><path d="M256 0c4.44 0 8.854.115 13.241.335C134.012 7.23 26.483 119.058 26.483 256s107.529 248.77 242.759 255.665c-4.388.22-8.802.335-13.242.335C114.617 512 0 397.383 0 256S114.617 0 256 0" style="" fill="#7dd5c3" data-original="#7dd5c3"></path><path d="M229.513 344.75h-.106a25.56 25.56 0 0 1-19.129-8.73l-50.856-58.121c-4.661-5.323-6.965-12.147-6.497-19.209.468-7.053 3.663-13.506 8.986-18.158 10.99-9.622 27.754-8.501 37.367 2.489l30.314 34.913L339.24 154.498c9.693-10.929 26.465-11.9 37.385-2.198 5.288 4.696 8.43 11.176 8.845 18.238.415 7.053-1.951 13.859-6.647 19.147L248.616 336.169a25.573 25.573 0 0 1-19.103 8.581M206.324 68.091c-3.937 0-7.53-2.648-8.545-6.638-1.209-4.732 1.642-9.543 6.365-10.743 17.028-4.343 34.472-6.559 51.844-6.568h.009c4.873 0 8.828 3.946 8.828 8.819.009 4.873-3.937 8.828-8.819 8.836-15.907.009-31.885 2.039-47.492 6.02a8.939 8.939 0 0 1-2.19.274M75.431 171.884a8.828 8.828 0 0 1-7.839-12.871c20.798-40.386 55.172-73.684 96.786-93.767 4.387-2.11 9.675-.274 11.794 4.122 2.11 4.387.274 9.666-4.122 11.785-38.179 18.423-69.711 48.94-88.761 85.945a8.84 8.84 0 0 1-7.858 4.786M52.966 264.828A8.826 8.826 0 0 1 44.138 256c.009-19.341 2.622-38.524 7.759-57.009 1.306-4.696 6.179-7.433 10.876-6.135a8.822 8.822 0 0 1 6.135 10.867c-4.714 16.949-7.106 34.534-7.115 52.277a8.825 8.825 0 0 1-8.827 8.828M256 467.862a8.826 8.826 0 0 1-8.828-8.828 8.826 8.826 0 0 1 8.828-8.828c16.993-.009 34.004-2.313 50.556-6.841 4.661-1.298 9.551 1.483 10.84 6.188 1.289 4.696-1.483 9.551-6.188 10.84-18.062 4.944-36.635 7.46-55.208 7.469zM349.828 444.561a8.828 8.828 0 0 1-4.105-16.649c37.959-19.906 68.661-51.88 86.44-90.041 2.057-4.423 7.318-6.347 11.732-4.273a8.825 8.825 0 0 1 4.273 11.723c-19.403 41.657-52.877 76.535-94.252 98.233a8.855 8.855 0 0 1-4.088 1.007M453.681 311.383a8.823 8.823 0 0 1-2.022-.23c-4.749-1.121-7.698-5.87-6.585-10.62 3.399-14.442 5.12-29.431 5.129-44.544.009-4.873 3.964-8.819 8.828-8.819h.009c4.882.009 8.828 3.964 8.819 8.836-.009 16.463-1.889 32.803-5.588 48.569a8.841 8.841 0 0 1-8.59 6.808" style="" fill="#ffffff" data-original="#ffffff" class=""></path><path d="M256 0c-4.44 0-8.854.115-13.241.335C377.988 7.23 485.517 119.058 485.517 256S377.988 504.77 242.759 511.665c4.387.22 8.801.335 13.241.335 141.383 0 256-114.617 256-256S397.383 0 256 0" style="" fill="#1d8b74" data-original="#1d8b74"></path></g></svg>