<svg xmlns="http://www.w3.org/2000/svg" version="1.1" xmlns:xlink="http://www.w3.org/1999/xlink" width="512" height="512" x="0" y="0" viewBox="0 0 512 512" style="enable-background:new 0 0 512 512" xml:space="preserve" class=""><g><path d="M512 256c0 57.01-18.641 109.672-50.155 152.221a257.537 257.537 0 0 1-39.706 42.548C377.428 488.95 319.415 512 256 512c-36.728 0-71.638-7.732-103.205-21.661a254.293 254.293 0 0 1-38.902-21.379 254.983 254.983 0 0 1-24.033-18.192 257.537 257.537 0 0 1-39.706-42.548C18.641 365.672 0 313.01 0 256s18.641-109.672 50.155-152.221a257.365 257.365 0 0 1 73.446-66.926C162.231 13.458 207.538 0 256 0c.334 0 .669 0 1.003.01 48.086.178 93.038 13.605 131.396 36.843a257.365 257.365 0 0 1 73.446 66.926C493.359 146.327 512 198.99 512 256z" style="" fill="#ef487d" data-original="#ef487d" class=""></path><path d="M476.615 220.615c0 49.129-16.064 94.513-43.222 131.18a222.009 222.009 0 0 1-34.217 36.668c-38.531 32.903-88.525 52.767-143.174 52.767-31.651 0-61.736-6.663-88.94-18.667a219.13 219.13 0 0 1-33.525-18.424 219.714 219.714 0 0 1-20.711-15.677 221.89 221.89 0 0 1-34.217-36.668c-27.158-36.667-43.222-82.051-43.222-131.18s16.063-94.513 43.221-131.18a221.807 221.807 0 0 1 63.294-57.675C175.192 11.598 214.236 0 256 0c.288 0 .577 0 .864.009 41.44.153 80.178 11.724 113.234 31.75a221.78 221.78 0 0 1 63.294 57.675c27.158 36.667 43.223 82.052 43.223 131.181z" style="" fill="#ff668c" data-original="#ff668c"></path><path d="M461.845 74.898V408.22a257.537 257.537 0 0 1-39.706 42.548C377.428 488.95 319.415 512 256 512c-36.728 0-71.638-7.732-103.205-21.661a254.293 254.293 0 0 1-38.902-21.379 254.983 254.983 0 0 1-24.033-18.192 257.537 257.537 0 0 1-39.706-42.548V74.898c0-21.013 17.032-38.045 38.045-38.045h335.6c21.014.001 38.046 17.032 38.046 38.045z" style="" fill="#343a6e" data-original="#343a6e" class=""></path><path d="M422.139 146.516v304.253C377.428 488.95 319.415 512 256 512c-36.728 0-71.638-7.732-103.205-21.661a254.293 254.293 0 0 1-38.902-21.379 254.983 254.983 0 0 1-24.033-18.192V146.516c0-13.249 10.731-23.98 23.97-23.98h284.327c13.24-.001 23.982 10.73 23.982 23.98z" style="" fill="#f0f0f0" data-original="#f0f0f0" class=""></path><path d="M357.874 47.084v67.312c0 12.581-10.188 22.768-22.768 22.768H176.888c-12.581 0-22.768-10.188-22.768-22.768V47.084c0-12.581 10.188-22.768 22.768-22.768h39.832C223.909 9.907 238.799.001 255.998.001c2.675 0 5.298.24 7.837.7 12.037 2.163 22.361 9.247 28.829 19.08.084.125.157.24.23.366a39.613 39.613 0 0 1 1.735 2.936c.24.439.46.857.648 1.233h39.832c12.578 0 22.765 10.188 22.765 22.768z" style="" fill="#f2ae5a" data-original="#f2ae5a" class=""></path><path d="M357.874 47.084v67.312c0 12.581-10.188 22.768-22.768 22.768H192.561c-12.581 0-22.768-10.188-22.768-22.768V47.084c0-12.581 10.188-22.768 22.768-22.768h24.158C223.908 9.907 238.798.001 255.997.001c2.675 0 5.298.24 7.837.7 12.037 2.163 22.361 9.247 28.829 19.08.084.125.157.24.23.366a69.576 69.576 0 0 1 1.735 2.936c.24.439.46.857.648 1.233h39.832c12.579 0 22.766 10.188 22.766 22.768z" style="" fill="#f9df73" data-original="#f9df73" class=""></path><circle cx="256" cy="35.809" r="15.151" style="" fill="#343a6e" data-original="#343a6e" class=""></circle><path d="M312.421 103.728H199.572c-6.059 0-10.971-4.912-10.971-10.971s4.912-10.971 10.971-10.971h112.849c6.059 0 10.971 4.912 10.971 10.971.001 6.059-4.911 10.971-10.971 10.971z" style="" fill="#f2ae5a" data-original="#f2ae5a" class=""></path><path d="M190.171 264.641h-65.829c-5.77 0-10.449-4.678-10.449-10.449v-65.829c0-5.771 4.679-10.449 10.449-10.449h65.829c5.77 0 10.449 4.678 10.449 10.449v65.829c0 5.771-4.679 10.449-10.449 10.449zm-55.379-20.898h44.931v-44.931h-44.931v44.931z" style="" fill="#5897d1" data-original="#5897d1" class=""></path><path d="M295.706 211.352h-65.829c-5.77 0-10.449-4.678-10.449-10.449s4.679-10.449 10.449-10.449h65.829c5.77 0 10.449 4.678 10.449 10.449s-4.679 10.449-10.449 10.449zM377.208 252.103h-147.33c-5.77 0-10.449-4.678-10.449-10.449s4.679-10.449 10.449-10.449h147.331c5.77 0 10.449 4.678 10.449 10.449s-4.68 10.449-10.45 10.449z" style="" fill="#484b7f" data-original="#484b7f" class=""></path><path d="M190.171 377.49h-65.829c-5.77 0-10.449-4.678-10.449-10.449v-65.829c0-5.771 4.679-10.449 10.449-10.449h65.829c5.77 0 10.449 4.678 10.449 10.449v65.829c0 5.771-4.679 10.449-10.449 10.449zm-55.379-20.898h44.931v-44.931h-44.931v44.931z" style="" fill="#5897d1" data-original="#5897d1" class=""></path><path d="M295.706 324.2h-65.829c-5.77 0-10.449-4.678-10.449-10.449s4.679-10.449 10.449-10.449h65.829c5.77 0 10.449 4.678 10.449 10.449s-4.679 10.449-10.449 10.449zM377.208 364.951h-147.33c-5.77 0-10.449-4.678-10.449-10.449s4.679-10.449 10.449-10.449h147.331c5.77 0 10.449 4.678 10.449 10.449-.001 5.771-4.68 10.449-10.45 10.449z" style="" fill="#484b7f" data-original="#484b7f" class=""></path><path d="M190.171 403.613h-65.829c-5.768 0-10.449 4.681-10.449 10.449v54.899a254.464 254.464 0 0 0 38.902 21.379h37.376c5.768 0 10.449-4.681 10.449-10.449v-65.829c0-5.768-4.681-10.449-10.449-10.449zm-10.449 65.828h-44.931V424.51h44.931v44.931z" style="" fill="#5897d1" data-original="#5897d1" class=""></path><path d="M295.706 437.049h-65.829c-5.77 0-10.449-4.678-10.449-10.449s4.679-10.449 10.449-10.449h65.829c5.77 0 10.449 4.678 10.449 10.449s-4.679 10.449-10.449 10.449zM377.208 477.8h-147.33c-5.77 0-10.449-4.678-10.449-10.449s4.679-10.449 10.449-10.449h147.331c5.77 0 10.449 4.678 10.449 10.449-.001 5.771-4.68 10.449-10.45 10.449z" style="" fill="#484b7f" data-original="#484b7f" class=""></path><path d="M156.733 368.085a10.445 10.445 0 0 1-8.691-4.653l-33.437-50.155c-3.201-4.801-1.904-11.289 2.898-14.49 4.802-3.201 11.289-1.904 14.49 2.899l23.2 34.799 29.716-62.734c2.469-5.215 8.7-7.441 13.916-4.97 5.215 2.47 7.44 8.701 4.97 13.916l-37.616 79.411a10.452 10.452 0 0 1-9.446 5.977z" style="" fill="#ef487d" data-original="#ef487d" class=""></path></g></svg>